<svg width="60" height="60" viewBox="0 0 60 60" fill="none" xmlns="http://www.w3.org/2000/svg">
<circle cx="30" cy="30" r="30" fill="#121212"/>
<path d="M40.7923 28.1103C39.7947 33.9663 33.9067 34.0783 33.7509 34.0803C34.5483 34.7538 34.7129 36.2267 34.7129 36.2267C34.7129 36.2267 34.7547 40.5043 34.7547 41.5897C34.7547 42.028 34.8881 42.2652 35.0483 42.3904C32.2556 43.2032 29.307 43.2032 26.5143 42.3904C26.6746 42.2652 26.808 42.028 26.808 41.5897C26.808 41.1119 26.8161 40.0127 26.8248 38.9339C22.7212 40.0055 21.4007 36.7697 21.4007 36.7697C21.0996 35.4458 19.895 34.3894 19.895 34.3894C18.799 33.9307 19.0178 33.3824 19.0178 33.3824C21.4824 32.6298 22.5778 35.5248 22.5778 35.5248C24.6352 37.8406 26.8498 36.2333 26.8498 36.2333C26.8498 36.2333 27.0144 34.7604 27.8118 34.0869C27.6559 34.0869 21.7704 33.9729 20.7704 28.1169C20.7704 28.1169 19.7566 24.267 22.2081 21.3877C22.2081 21.3877 21.4275 19.3903 22.3727 17.002C22.3727 17.002 24.1807 16.8702 26.6852 18.7392C26.6852 18.7392 29.4141 18.1744 30.7813 18.1744C32.1486 18.1744 34.8775 18.7392 34.8775 18.7392C37.3832 16.8722 39.19 17.002 39.19 17.002C40.1351 19.3903 39.3546 21.3877 39.3546 21.3877C41.806 24.2617 40.7923 28.1103 40.7923 28.1103Z" fill="#BCBCBC"/>
</svg>
