<svg width="60" height="60" viewBox="0 0 60 60" fill="none" xmlns="http://www.w3.org/2000/svg">
<circle cx="30" cy="30" r="30" fill="#121212"/>
<path d="M36.5 43H23.5C21.7761 43 20.1228 42.3152 18.9038 41.0962C17.6848 39.8772 17 38.2239 17 36.5V23.5C17 21.7761 17.6848 20.1228 18.9038 18.9038C20.1228 17.6848 21.7761 17 23.5 17H36.5C38.2239 17 39.8772 17.6848 41.0962 18.9038C42.3152 20.1228 43 21.7761 43 23.5V36.5C43 38.2239 42.3152 39.8772 41.0962 41.0962C39.8772 42.3152 38.2239 43 36.5 43ZM23.5 19.6C22.4661 19.6014 21.4749 20.0128 20.7439 20.7439C20.0128 21.4749 19.6014 22.4661 19.6 23.5V36.5C19.6014 37.5339 20.0128 38.5251 20.7439 39.2561C21.4749 39.9872 22.4661 40.3986 23.5 40.4H36.5C37.5339 40.3986 38.5251 39.9872 39.2561 39.2561C39.9872 38.5251 40.3986 37.5339 40.4 36.5V23.5C40.3986 22.4661 39.9872 21.4749 39.2561 20.7439C38.5251 20.0128 37.5339 19.6014 36.5 19.6H23.5Z" fill="#BCBCBC"/>
<path d="M30 36.8095C28.6532 36.8095 27.3366 36.4101 26.2168 35.6619C25.097 34.9136 24.2242 33.8501 23.7088 32.6058C23.1934 31.3616 23.0586 29.9924 23.3213 28.6715C23.5841 27.3506 24.2326 26.1372 25.1849 25.1849C26.1373 24.2326 27.3506 23.584 28.6715 23.3213C29.9924 23.0585 31.3616 23.1934 32.6059 23.7088C33.8502 24.2242 34.9137 25.097 35.6619 26.2168C36.4101 27.3366 36.8095 28.6532 36.8095 30C36.8082 31.8055 36.0903 33.5368 34.8136 34.8136C33.5368 36.0903 31.8056 36.8082 30 36.8095ZM30 25.5938C29.1285 25.5938 28.2766 25.8522 27.5521 26.3364C26.8275 26.8205 26.2627 27.5087 25.9292 28.3138C25.5957 29.1189 25.5085 30.0048 25.6785 30.8596C25.8485 31.7143 26.2681 32.4994 26.8844 33.1156C27.5006 33.7318 28.2857 34.1514 29.1404 34.3215C29.9951 34.4915 30.881 34.4042 31.6862 34.0707C32.4913 33.7372 33.1794 33.1725 33.6636 32.4479C34.1477 31.7233 34.4061 30.8714 34.4061 30C34.4048 28.8318 33.9402 27.7118 33.1142 26.8858C32.2881 26.0598 31.1682 25.5951 30 25.5938Z" fill="#BCBCBC"/>
<path d="M36.8095 24.4288C37.4933 24.4288 38.0476 23.8745 38.0476 23.1907C38.0476 22.507 37.4933 21.9526 36.8095 21.9526C36.1257 21.9526 35.5714 22.507 35.5714 23.1907C35.5714 23.8745 36.1257 24.4288 36.8095 24.4288Z" fill="#BCBCBC"/>
</svg>
