<svg width="60" height="60" viewBox="0 0 60 60" fill="none" xmlns="http://www.w3.org/2000/svg">
<circle cx="30" cy="30" r="30" fill="#121212"/>
<path d="M42 32.7132V42H36.8549V33.3356C36.8549 31.16 36.112 29.6744 34.2492 29.6744C32.8275 29.6744 31.983 30.6746 31.61 31.6431C31.4746 31.9892 31.4397 32.4699 31.4397 32.9553V41.9996H26.2942C26.2942 41.9996 26.3632 27.3249 26.2942 25.8059H31.44V28.1007C31.4297 28.1188 31.4151 28.1365 31.4059 28.1537H31.44V28.1007C32.1238 26.9997 33.3432 25.4257 36.0771 25.4257C39.4622 25.4257 42 27.7401 42 32.7132ZM20.9116 18C19.1515 18 18 19.209 18 20.7975C18 22.3523 19.1181 23.5963 20.844 23.5963H20.8774C22.672 23.5963 23.7878 22.3523 23.7878 20.7975C23.7537 19.209 22.672 18 20.9116 18ZM18.3058 42H23.4494V25.8059H18.3058V42Z" fill="#BCBCBC"/>
</svg>
