<svg width="40" height="40" viewBox="0 0 40 40" fill="none" xmlns="http://www.w3.org/2000/svg">
<path d="M0.159315 0.0565247C2.78052 0.0527087 5.40173 0.0498213 8.02294 0.0480491C9.23993 0.0472045 10.4569 0.0460524 11.6739 0.0441841C12.7342 0.0425572 13.7946 0.0414991 14.8549 0.0411335C15.4167 0.0409197 15.9785 0.0404147 16.5403 0.0392291C17.0684 0.0381235 17.5966 0.0377754 18.1247 0.0380223C18.3191 0.0379771 18.5136 0.037649 18.708 0.0370248C18.9723 0.0362175 19.2366 0.0365026 19.5008 0.0368532C19.7232 0.036627 19.7232 0.036627 19.9501 0.0363963C20.2809 0.0565246 20.2809 0.0565247 20.415 0.220106C20.4268 0.583021 20.4294 0.94639 20.4281 1.30959C20.4278 1.47263 20.4278 1.47263 20.4275 1.63896C20.4268 1.98733 20.4251 2.33569 20.4234 2.68406C20.4227 2.91974 20.4221 3.15542 20.4216 3.3911C20.4201 3.96992 20.4178 4.54874 20.415 5.12756C20.0939 5.32334 19.8975 5.31129 19.539 5.31081C19.4111 5.31104 19.2832 5.31126 19.1514 5.31149C18.9402 5.31061 18.9402 5.31061 18.7248 5.30971C18.5769 5.30973 18.429 5.30976 18.2767 5.30978C17.786 5.30967 17.2953 5.30839 16.8047 5.30711C16.4652 5.30681 16.1257 5.30658 15.7863 5.30641C14.9829 5.30585 14.1795 5.30456 13.3762 5.30292C12.2117 5.30059 11.0471 5.29973 9.88258 5.2987C8.25121 5.29711 6.61986 5.29398 4.98849 5.29114C4.98849 8.31413 4.98849 11.3371 4.98849 14.4517C6.40963 14.4489 6.40963 14.4489 7.85948 14.446C8.45797 14.4451 9.05647 14.4443 9.65496 14.4437C10.6059 14.4427 11.5569 14.4416 12.5078 14.4394C13.2741 14.4376 14.0404 14.4366 14.8066 14.4362C15.0997 14.4359 15.3927 14.4353 15.6858 14.4344C16.0947 14.4332 16.5036 14.4331 16.9126 14.4331C17.035 14.4326 17.1575 14.432 17.2836 14.4314C18.1193 14.4331 18.1193 14.4331 18.2687 14.6153C18.2821 14.9643 18.2863 15.3139 18.2865 15.6632C18.2867 15.876 18.2869 16.0888 18.2871 16.308C18.2868 16.4193 18.2865 16.5307 18.2862 16.6455C18.2855 16.9858 18.2862 17.3261 18.2871 17.6665C18.2868 17.9856 18.2868 17.9856 18.2865 18.3112C18.2864 18.5081 18.2862 18.7049 18.2861 18.9077C18.2687 19.3592 18.2687 19.3592 18.1346 19.5227C17.7262 19.5383 17.3209 19.5433 16.9126 19.5413C16.7843 19.5413 16.6561 19.5414 16.524 19.5414C16.0979 19.5413 15.6718 19.54 15.2458 19.5387C14.9512 19.5384 14.6567 19.5382 14.3621 19.538C13.5852 19.5374 12.8083 19.5358 12.0313 19.534C11.1001 19.532 10.1688 19.5313 9.23748 19.5303C7.82114 19.5287 6.40482 19.5256 4.98849 19.5227C4.98849 22.5457 4.98849 25.5687 4.98849 28.6833C6.07961 28.6795 7.17073 28.6757 8.29492 28.6718C8.9845 28.6701 9.67409 28.6686 10.3637 28.6673C11.4592 28.6654 12.5547 28.6631 13.6502 28.6586C14.533 28.655 15.4158 28.6531 16.2986 28.6523C16.6361 28.6517 16.9736 28.6505 17.3111 28.6487C17.7823 28.6464 18.2536 28.646 18.7248 28.6462C18.8656 28.645 19.0063 28.6438 19.1514 28.6426C19.3433 28.6433 19.3433 28.6433 19.539 28.644C19.6505 28.6437 19.7621 28.6434 19.877 28.6431C20.1467 28.6833 20.1467 28.6833 20.415 29.0105C20.4476 29.4655 20.4476 29.4655 20.4459 30.0386C20.4457 30.2435 20.4454 30.4483 20.4451 30.6594C20.4435 30.8744 20.4419 31.0894 20.4402 31.3109C20.44 31.6343 20.44 31.6343 20.4399 31.9642C20.4338 33.5679 20.4338 33.5679 20.2809 33.7544C20.0211 33.7702 19.7609 33.7743 19.5008 33.774C19.3314 33.7742 19.1619 33.7745 18.9872 33.7747C18.7977 33.7741 18.6081 33.7735 18.4185 33.7729C18.2203 33.7729 18.022 33.7729 17.8238 33.773C17.2839 33.773 16.744 33.7721 16.2041 33.7709C15.6406 33.7699 15.077 33.7698 14.5134 33.7696C13.4454 33.7691 12.3774 33.7678 11.3094 33.7661C10.0939 33.7643 8.87833 33.7634 7.66278 33.7626C5.16163 33.7609 2.66047 33.758 0.159315 33.7544C-0.0505616 33.2425 0.00681744 32.6975 0.0081372 32.1356C0.00792794 32.0006 0.00771867 31.8656 0.00750307 31.7265C0.0069656 31.2717 0.00739285 30.8168 0.00781379 30.3619C0.00763214 30.0369 0.00739336 29.7118 0.00710148 29.3868C0.00648815 28.502 0.00672781 27.6171 0.00715233 26.7323C0.007491 25.8081 0.00717725 24.8839 0.00696639 23.9597C0.00672206 22.4074 0.0070447 20.8551 0.00768279 19.3028C0.00841288 17.5059 0.00817643 15.709 0.00743779 13.9121C0.00682985 12.3717 0.00674276 10.8313 0.00709421 9.29096C0.00730378 8.3699 0.00733001 7.44885 0.0068881 6.5278C0.00650176 5.66206 0.00676728 4.79632 0.00754463 3.93058C0.00772263 3.61207 0.00767001 3.29355 0.00737525 2.97504C0.00701116 2.54178 0.00746553 2.10854 0.0081372 1.67529C0.00783796 1.54789 0.00753873 1.4205 0.00723042 1.28924C0.00985875 0.421034 0.00985875 0.421034 0.159315 0.0565247Z" fill="url(#paint0_linear_383_109)"/>
<path d="M22.1589 0.0565242C23.163 0.0413705 24.1669 0.028383 25.1711 0.020581C25.5115 0.0173231 25.8519 0.0128831 26.1923 0.00716218C28.2239 -0.0260846 30.1228 0.0322619 32.0855 0.710851C32.1745 0.741161 32.2635 0.77147 32.3552 0.802699C34.2521 1.46024 35.8266 2.7822 36.9147 4.80039C36.9887 4.93598 37.0627 5.07157 37.139 5.21126C38.2269 7.40823 38.5214 9.96745 38.0801 12.4581C38.0079 12.7965 37.9327 13.1341 37.8537 13.4702C37.8262 13.5913 37.7987 13.7123 37.7704 13.837C37.273 15.7131 35.9483 17.5398 34.5536 18.5112C31.1483 20.5605 31.1483 20.5605 29.7363 20.0569C29.3596 19.8232 29.2069 19.6155 28.9651 19.1969C28.8898 19.068 28.8145 18.9392 28.7369 18.8064C28.6606 18.6717 28.5842 18.5369 28.5056 18.3981C28.4277 18.2646 28.3498 18.1312 28.2695 17.9936C27.9415 17.4268 27.6344 16.8793 27.3905 16.2511C27.302 16.2511 27.2134 16.2511 27.1222 16.2511C26.8958 15.9546 26.8958 15.9546 26.7198 15.5968C26.7862 15.3539 26.7862 15.3539 26.8539 15.106C26.9839 15.1098 27.114 15.1136 27.248 15.1175C30.1425 15.227 30.1425 15.227 32.6205 13.6568C33.5179 12.4878 33.8257 11.2931 33.8294 9.70784C33.7432 8.3089 33.1699 7.15105 32.3119 6.23173C31.7866 5.79375 31.2133 5.55123 30.6099 5.32181C30.5234 5.28791 30.4369 5.25402 30.3478 5.21909C28.5271 4.59056 26.4537 4.762 24.5735 4.70838C24.3377 4.70129 24.1019 4.69415 23.8661 4.68697C23.297 4.66966 22.728 4.65325 22.1589 4.63681C22.1589 3.12532 22.1589 1.61382 22.1589 0.0565242Z" fill="url(#paint1_linear_383_109)"/>
<path d="M22.9357 14.2543C24.4351 14.3045 24.4351 14.3045 25.0241 14.9738C25.4121 15.5493 25.7098 16.1849 25.9992 16.8395C26.3019 17.4863 26.6839 18.0519 27.0635 18.6333C27.2093 18.8646 27.3546 19.0963 27.4995 19.3285C27.5706 19.4422 27.6416 19.5558 27.7148 19.6729C28.4686 20.8826 29.2129 22.101 29.9576 23.319C30.611 24.3865 31.2683 25.4464 31.9556 26.482C32.3124 27.0251 32.6593 27.5774 33.0062 28.13C33.3442 28.6679 33.6842 29.2037 34.0264 29.7377C34.7922 30.9326 35.5539 32.1267 36.277 33.3607C36.5988 33.8992 36.9397 34.4182 37.2836 34.9358C37.4513 35.2266 37.4513 35.2266 37.4513 35.5538C37.5398 35.5538 37.6283 35.5538 37.7196 35.5538C37.8876 35.8079 38.045 36.0726 38.1974 36.341C38.6871 37.189 39.2149 37.9768 39.7736 38.7583C40 39.1525 40 39.1525 40 39.8069C39.2746 39.8475 38.5497 39.8771 37.8238 39.8967C37.5773 39.9049 37.3308 39.9161 37.0845 39.9303C35.0458 40.0449 35.0458 40.0449 34.3913 39.4833C34.1147 39.0632 33.9055 38.6441 33.6952 38.1711C33.5524 37.9367 33.4062 37.7053 33.2561 37.4778C33.1173 37.2557 32.9786 37.0336 32.8401 36.8113C32.6887 36.5691 32.5372 36.3269 32.3858 36.0848C32.3122 35.9671 32.2387 35.8494 32.1629 35.7281C31.7538 35.0744 31.3421 34.4231 30.9306 33.7716C30.7138 33.4281 30.4971 33.0844 30.2809 32.7403C29.196 31.015 28.0958 29.3052 26.9797 27.6098C26.1961 26.419 25.4324 25.2109 24.6731 23.997C23.6018 22.2852 22.5152 20.6049 21.3074 19.0314C21.0857 18.7048 21.0857 18.7048 21.0857 18.3777C20.9972 18.3777 20.9087 18.3777 20.8174 18.3777C20.5362 18.0805 20.4258 17.8313 20.3807 17.3806C20.3705 16.9656 20.3734 16.5537 20.3815 16.1387C20.3822 15.9947 20.3829 15.8508 20.3836 15.7025C20.4022 13.8583 21.6565 14.2724 22.9357 14.2543Z" fill="url(#paint2_linear_383_109)"/>
<path d="M0.159315 0.0565247C2.78052 0.0527087 5.40173 0.0498213 8.02294 0.0480491C9.23993 0.0472045 10.4569 0.0460524 11.6739 0.0441841C12.7342 0.0425572 13.7946 0.0414991 14.8549 0.0411335C15.4167 0.0409197 15.9785 0.0404147 16.5403 0.0392291C17.0684 0.0381235 17.5966 0.0377754 18.1247 0.0380223C18.3191 0.0379771 18.5136 0.037649 18.708 0.0370248C18.9723 0.0362175 19.2366 0.0365026 19.5008 0.0368532C19.7232 0.036627 19.7232 0.036627 19.9501 0.0363963C20.2809 0.0565246 20.2809 0.0565247 20.415 0.220106C20.4268 0.583021 20.4294 0.94639 20.4281 1.30959C20.4278 1.47263 20.4278 1.47263 20.4275 1.63896C20.4268 1.98733 20.4251 2.33569 20.4234 2.68406C20.4227 2.91974 20.4221 3.15542 20.4216 3.3911C20.4201 3.96992 20.4178 4.54874 20.415 5.12756C20.0939 5.32334 19.8975 5.31129 19.539 5.31081C19.4111 5.31104 19.2832 5.31126 19.1514 5.31149C18.9402 5.31061 18.9402 5.31061 18.7248 5.30971C18.5769 5.30973 18.429 5.30976 18.2767 5.30978C17.786 5.30967 17.2953 5.30839 16.8047 5.30711C16.4652 5.30681 16.1257 5.30658 15.7863 5.30641C14.9829 5.30585 14.1795 5.30456 13.3762 5.30292C12.2117 5.30059 11.0471 5.29973 9.88258 5.2987C8.25121 5.29711 6.61986 5.29398 4.98849 5.29114C4.98849 8.31413 4.98849 11.3371 4.98849 14.4517C4.94422 14.4517 4.89995 14.4517 4.85434 14.4517C4.83374 13.1962 4.81386 11.9406 4.79492 10.6851C4.78611 10.1021 4.77704 9.51916 4.76739 8.93622C4.75633 8.2667 4.74636 7.59715 4.73645 6.92759C4.73282 6.71733 4.72919 6.50706 4.72546 6.29042C4.72276 6.09721 4.72006 5.90399 4.71729 5.70493C4.71461 5.53383 4.71192 5.36274 4.70916 5.18647C4.7202 4.80039 4.7202 4.80039 4.85434 4.63681C5.05515 4.62448 5.25643 4.62322 5.45747 4.62659C5.64727 4.62866 5.64727 4.62866 5.8409 4.63078C5.97738 4.63277 6.11386 4.63476 6.25447 4.63681C7.27649 4.6445 8.29403 4.63474 9.31462 4.56525C9.4143 4.55881 9.51398 4.55238 9.61668 4.54576C10.0245 4.51535 10.367 4.46802 10.7567 4.30965C10.7567 4.41761 10.7567 4.52558 10.7567 4.63681C10.8718 4.6102 10.987 4.5836 11.1057 4.55618C11.5512 4.47512 11.9664 4.45354 12.4164 4.45466C12.5828 4.45467 12.7493 4.45468 12.9208 4.4547C13.1003 4.45553 13.2799 4.45639 13.4595 4.45726C13.6448 4.45756 13.8301 4.45779 14.0154 4.45796C14.501 4.45858 14.9866 4.46018 15.4722 4.462C15.9686 4.46368 16.465 4.46442 16.9613 4.46524C17.9337 4.46699 18.9061 4.46987 19.8784 4.47323C19.8784 3.23165 19.8784 1.99006 19.8784 0.710851C18.3987 0.707159 16.919 0.704156 15.4393 0.702376C14.7522 0.701521 14.0652 0.700362 13.3781 0.698511C12.7154 0.696736 12.0526 0.695756 11.3898 0.695331C11.1367 0.695028 10.8836 0.694437 10.6304 0.693556C10.2765 0.692372 9.92254 0.692205 9.5686 0.692281C9.41084 0.691399 9.41084 0.691399 9.2499 0.690499C8.82172 0.691496 8.4831 0.708058 8.07379 0.874433C7.94099 0.820451 7.80819 0.766469 7.67136 0.710851C7.46759 0.69667 7.26334 0.691599 7.05923 0.692281C6.93572 0.692293 6.81221 0.692305 6.68496 0.692318C6.55206 0.693163 6.41917 0.694007 6.28224 0.694877C6.14585 0.695108 6.00945 0.69534 5.86893 0.695578C5.43292 0.696494 4.99691 0.698548 4.56091 0.700628C4.26546 0.701448 3.97001 0.702194 3.67456 0.702864C2.94996 0.704669 2.22535 0.707407 1.50075 0.710851C1.45648 0.602888 1.41222 0.494924 1.36661 0.383688C1.08145 0.307375 1.08145 0.307375 0.754578 0.281449C0.643736 0.269219 0.532895 0.256989 0.418695 0.244388C0.333099 0.236375 0.247504 0.228362 0.159315 0.220106C0.159315 0.166124 0.159315 0.112142 0.159315 0.0565247Z" fill="url(#paint3_linear_383_109)"/>
<path d="M4.7202 19.6863C4.76447 19.6863 4.80874 19.6863 4.85434 19.6863C4.85434 22.7093 4.85434 25.7323 4.85434 28.8469C5.95515 28.8313 7.05596 28.8157 8.19012 28.7996C8.97423 28.7893 9.75834 28.7793 10.5425 28.7695C11.5593 28.7568 12.5761 28.7436 13.5929 28.7285C14.4835 28.7154 15.3742 28.7039 16.2648 28.6935C16.6053 28.6893 16.9458 28.6844 17.2863 28.679C17.7617 28.6716 18.2371 28.6661 18.7125 28.6612C18.8545 28.6585 18.9965 28.6558 19.1429 28.653C19.3364 28.6516 19.3364 28.6516 19.5339 28.6502C19.6464 28.6487 19.759 28.6472 19.8749 28.6456C20.1467 28.6833 20.1467 28.6833 20.415 29.0105C20.415 30.522 20.415 32.0335 20.415 33.5908C13.7749 33.5908 7.13479 33.5908 0.293459 33.5908C0.293459 33.5368 0.293459 33.4828 0.293459 33.4272C0.7804 33.4272 1.26734 33.4272 1.76904 33.4272C1.83544 33.2652 1.83544 33.2652 1.90318 33.1C2.15511 33.1006 2.15511 33.1006 2.41212 33.1011C3.99508 33.1044 5.57804 33.1069 7.161 33.1085C7.97481 33.1094 8.78862 33.1105 9.60243 33.1124C10.3878 33.1141 11.1732 33.1151 11.9586 33.1155C12.2583 33.1158 12.5579 33.1164 12.8575 33.1173C13.2772 33.1185 13.6969 33.1187 14.1166 33.1186C14.2404 33.1192 14.3642 33.1198 14.4918 33.1204C15.097 33.1192 15.6601 33.078 16.2566 32.9364C16.5369 32.9238 16.8176 32.9188 17.0981 32.9205C17.2529 32.921 17.4076 32.9215 17.5671 32.9221C17.7267 32.9234 17.8863 32.9248 18.0507 32.9262C18.2948 32.9273 18.2948 32.9273 18.5438 32.9285C18.944 32.9304 19.3441 32.9331 19.7443 32.9364C19.8588 32.4136 19.8965 31.9558 19.8952 31.4131C19.8956 31.2653 19.8959 31.1175 19.8963 30.9652C19.8759 30.4151 19.8105 29.882 19.7443 29.3376C19.5747 29.338 19.405 29.3384 19.2303 29.3387C17.6315 29.3421 16.0328 29.3445 14.434 29.3461C13.6121 29.347 12.7901 29.3481 11.9682 29.35C11.175 29.3518 10.3818 29.3527 9.58852 29.3532C9.28592 29.3535 8.98331 29.3541 8.68071 29.3549C8.25682 29.3561 7.83293 29.3563 7.40904 29.3562C7.28399 29.3568 7.15894 29.3574 7.0301 29.358C6.42329 29.3568 5.85396 29.3254 5.25678 29.1741C5.25678 29.282 5.25678 29.39 5.25678 29.5012C5.16824 29.5012 5.07971 29.5012 4.98849 29.5012C4.92209 29.6632 4.92209 29.6632 4.85434 29.8284C4.50609 28.9832 4.40781 28.3737 4.48912 27.4264C4.50558 27.1803 4.52161 26.9341 4.53726 26.6878C4.54578 26.5597 4.55431 26.4315 4.56309 26.2995C4.60217 25.624 4.61521 24.948 4.6285 24.2711C4.63134 24.1354 4.63417 23.9998 4.63709 23.86C4.64556 23.4469 4.65355 23.0337 4.66151 22.6206C4.66733 22.3338 4.67318 22.047 4.67907 21.7602C4.69318 21.0689 4.70683 20.3776 4.7202 19.6863Z" fill="url(#paint4_linear_383_109)"/>
<path d="M0.025171 3.16458C0.0694384 3.16458 0.113706 3.16458 0.159315 3.16458C0.162378 3.34142 0.165441 3.51826 0.168597 3.70046C0.197529 5.36612 0.227103 7.03176 0.257305 8.69739C0.272813 9.55373 0.288093 10.4101 0.302858 11.2664C0.317111 12.0927 0.331958 12.9189 0.347218 13.7451C0.352938 14.0605 0.358444 14.376 0.363733 14.6914C0.371172 15.1328 0.379369 15.5741 0.387745 16.0155C0.389772 16.1462 0.391798 16.2769 0.393886 16.4116C0.405487 16.9848 0.445696 17.4974 0.561746 18.0505C0.574174 18.3706 0.579182 18.6911 0.578514 19.0116C0.57886 19.1765 0.579205 19.3413 0.579562 19.5112C0.561746 20.0135 0.561746 20.0135 0.494674 20.4742C0.408203 21.1456 0.408096 21.799 0.410834 22.4774C0.410315 22.6066 0.409797 22.7358 0.409262 22.8688C0.409435 22.9946 0.409608 23.1204 0.409786 23.25C0.409937 23.3628 0.410089 23.4756 0.410245 23.5919C0.42067 23.9471 0.42067 23.9471 0.495263 24.3175C0.578146 24.8659 0.574319 25.3832 0.57013 25.9408C0.569622 26.0518 0.569114 26.1628 0.568591 26.2772C0.56696 26.6294 0.564459 26.9816 0.561746 27.3338C0.558191 27.7998 0.555506 28.2658 0.553362 28.7319C0.551806 28.9383 0.550249 29.1447 0.548646 29.3573C0.517263 29.8114 0.517263 29.8114 0.69589 29.992C0.666082 30.4541 0.6173 30.9117 0.569606 31.3716C0.567012 31.5101 0.564418 31.6486 0.561746 31.7914C0.650281 31.8993 0.738816 32.0073 0.830033 32.1185C0.830033 32.2805 0.830033 32.4424 0.830033 32.6093C0.741498 32.6093 0.652964 32.6093 0.561746 32.6093C0.561746 32.7712 0.561746 32.9332 0.561746 33.1C0.915885 33.154 1.27002 33.208 1.6349 33.2636C1.6349 33.3176 1.6349 33.3716 1.6349 33.4272C10.8647 33.5082 10.8647 33.5082 20.2809 33.5908C20.2809 33.6448 20.2809 33.6987 20.2809 33.7544C13.6408 33.7544 7.00064 33.7544 0.159315 33.7544C-0.0401869 33.2678 0.00725513 32.7724 0.00903963 32.239C0.00892501 32.1151 0.00881039 31.9912 0.00869231 31.8636C0.00847043 31.4464 0.00921081 31.0292 0.0099423 30.612C0.00998011 30.3138 0.00995894 30.0156 0.00988294 29.7174C0.00984433 28.906 0.010635 28.0946 0.0115697 27.2831C0.0124062 26.4358 0.0124869 25.5885 0.0126462 24.7412C0.0130637 23.1359 0.0141654 21.5305 0.0155101 19.9252C0.0170077 18.0979 0.0177466 16.2707 0.0184204 14.4434C0.0198239 10.6838 0.0221845 6.92419 0.025171 3.16458Z" fill="url(#paint5_linear_383_109)"/>
<path d="M18.1346 14.4517C18.0903 16.0712 18.046 17.6906 18.0004 19.3592C13.6622 19.3592 9.32401 19.3592 4.85434 19.3592C4.85434 19.3052 4.85434 19.2512 4.85434 19.1956C5.9094 18.9824 6.92229 18.8419 7.99205 18.8678C8.43034 18.8686 8.84822 18.7845 9.28109 18.7048C10.3924 18.6463 10.3924 18.6463 10.7567 18.8684C10.8009 18.7605 10.8452 18.6525 10.8908 18.5413C11.0248 18.5812 11.0248 18.5812 11.1616 18.622C11.6419 18.7215 12.11 18.7252 12.5954 18.7208C12.6927 18.7206 12.79 18.7204 12.8903 18.7201C13.1991 18.7192 13.508 18.7171 13.8168 18.7151C14.027 18.7142 14.2372 18.7135 14.4475 18.7128C14.9611 18.711 15.4747 18.7082 15.9883 18.7048C15.9883 18.7588 15.9883 18.8128 15.9883 18.8684C16.2981 18.9224 16.608 18.9764 16.9273 19.032C16.9273 18.924 16.9273 18.8161 16.9273 18.7048C17.1486 18.7048 17.37 18.7048 17.598 18.7048C17.6423 17.5172 17.6865 16.3296 17.7321 15.106C17.4665 15.214 17.2009 15.322 16.9273 15.4332C16.8609 15.2713 16.8609 15.2713 16.7931 15.106C16.5358 15.1111 16.5358 15.1111 16.2733 15.1163C15.7535 15.1265 15.7535 15.1265 15.4517 14.9425C15.4517 15.0504 15.4517 15.1584 15.4517 15.2696C15.3493 15.2393 15.247 15.2089 15.1415 15.1776C14.769 15.0687 14.769 15.0687 14.3785 15.2696C14.1542 15.2198 13.9308 15.1643 13.7078 15.106C13.3733 15.0715 13.0384 15.0429 12.7033 15.0185C12.5618 15.008 12.5618 15.008 12.4175 14.9972C12.1182 14.975 11.8189 14.9536 11.5196 14.9322C11.3159 14.9173 11.1121 14.9023 10.9084 14.8872C10.4107 14.8505 9.91297 14.8145 9.41523 14.7789C9.41523 14.7249 9.41523 14.6709 9.41523 14.6153C10.4134 14.5938 11.4117 14.5725 12.4099 14.5513C12.8734 14.5415 13.337 14.5316 13.8006 14.5216C14.3344 14.5101 14.8681 14.4988 15.4019 14.4875C15.6499 14.4821 15.6499 14.4821 15.9029 14.4767C16.0586 14.4734 16.2143 14.4701 16.3748 14.4667C16.5109 14.4638 16.647 14.4609 16.7873 14.4579C17.2363 14.4511 17.6855 14.4517 18.1346 14.4517Z" fill="url(#paint6_linear_383_109)"/>
<path d="M22.1589 0.0565242C23.1753 0.0451956 24.1915 0.0354431 25.2079 0.0295671C25.5529 0.0271149 25.8979 0.0237779 26.2429 0.019503C29.9234 -0.0249252 29.9234 -0.0249252 31.4148 0.54727C31.3263 0.655234 31.2377 0.763197 31.1465 0.874433C30.7974 0.837197 30.7974 0.837197 30.362 0.735532C29.4801 0.551517 28.629 0.491537 27.7358 0.479537C27.5864 0.476369 27.437 0.473201 27.2831 0.469937C26.8131 0.460276 26.343 0.452617 25.873 0.445031C25.5513 0.438774 25.2297 0.432386 24.908 0.425861C24.1258 0.410035 23.3436 0.396923 22.5613 0.383688C22.6498 1.62527 22.7384 2.86686 22.8296 4.14607C23.158 4.13236 23.4863 4.11865 23.8247 4.10453C24.1488 4.09181 24.4729 4.07948 24.7971 4.06719C25.0194 4.05855 25.2417 4.04951 25.464 4.04003C27.2098 3.966 28.9041 3.94438 30.6099 4.47323C30.6099 4.63518 30.6099 4.79712 30.6099 4.96398C30.8313 4.96398 31.0526 4.96398 31.2807 4.96398C31.4135 5.28787 31.4135 5.28787 31.5489 5.6183C31.4189 5.57297 31.2889 5.52763 31.1549 5.48092C30.9733 5.42093 30.7916 5.36109 30.6099 5.30136C30.5256 5.27153 30.4412 5.24169 30.3542 5.21095C28.5139 4.61753 26.4663 4.76236 24.5735 4.70838C24.3377 4.70129 24.1019 4.69415 23.8661 4.68697C23.297 4.66966 22.728 4.65325 22.1589 4.63681C22.1589 3.12532 22.1589 1.61382 22.1589 0.0565242Z" fill="url(#paint7_linear_383_109)"/>
<path d="M22.4272 28.8469C23.3322 29.7666 23.3322 29.7666 23.6146 30.2885C23.6761 30.4002 23.7377 30.512 23.8011 30.6271C23.8623 30.7414 23.9235 30.8557 23.9866 30.9735C24.1111 31.202 24.2358 31.4303 24.3607 31.6585C24.4485 31.8201 24.4485 31.8201 24.538 31.985C24.7217 32.3169 24.7217 32.3169 25.021 32.732C25.2442 33.1 25.2442 33.1 25.2442 33.7544C24.3146 33.7544 23.385 33.7544 22.4272 33.7544C22.4272 32.1349 22.4272 30.5154 22.4272 28.8469Z" fill="url(#paint8_linear_383_109)"/>
<path d="M1.36661 0.383688C7.56405 0.383688 13.7615 0.383688 20.1467 0.383688C20.1467 1.78722 20.1467 3.19075 20.1467 4.63681C19.9008 4.93675 19.557 4.82002 19.2297 4.82075C19.1173 4.82016 19.0049 4.81957 18.8891 4.81896C18.7124 4.819 18.7124 4.819 18.5322 4.81904C18.141 4.81892 17.7498 4.81765 17.3585 4.81637C17.088 4.81606 16.8176 4.81583 16.5471 4.81567C15.8337 4.81504 15.1202 4.81343 14.4068 4.81163C13.6794 4.80996 12.952 4.80921 12.2247 4.80838C10.7963 4.80662 9.36798 4.80383 7.93965 4.80039C7.93965 4.74641 7.93965 4.69243 7.93965 4.63681C8.10928 4.6269 8.27892 4.61699 8.45369 4.60678C8.67639 4.59297 8.89909 4.57912 9.12179 4.56525C9.23358 4.55881 9.34538 4.55238 9.46056 4.54576C9.5682 4.5389 9.67584 4.53205 9.78675 4.52499C9.93532 4.51599 9.93532 4.51599 10.0869 4.50682C10.3821 4.48167 10.3821 4.48167 10.7567 4.30965C10.7567 4.41761 10.7567 4.52558 10.7567 4.63681C10.8718 4.6102 10.987 4.5836 11.1057 4.55618C11.5512 4.47512 11.9664 4.45354 12.4164 4.45466C12.5828 4.45467 12.7493 4.45468 12.9208 4.4547C13.1003 4.45553 13.2799 4.45639 13.4595 4.45726C13.6448 4.45756 13.8301 4.45779 14.0154 4.45796C14.501 4.45858 14.9866 4.46018 15.4722 4.462C15.9686 4.46368 16.465 4.46442 16.9613 4.46524C17.9337 4.46699 18.9061 4.46987 19.8784 4.47323C19.8784 3.23165 19.8784 1.99006 19.8784 0.710851C18.3987 0.707159 16.919 0.704156 15.4393 0.702376C14.7522 0.701521 14.0652 0.700362 13.3781 0.698511C12.7154 0.696736 12.0526 0.695756 11.3898 0.695331C11.1367 0.695028 10.8836 0.694437 10.6304 0.693556C10.2765 0.692372 9.92254 0.692205 9.5686 0.692281C9.46343 0.691693 9.35825 0.691105 9.2499 0.690499C8.82172 0.691496 8.4831 0.708058 8.07379 0.874433C7.94099 0.820451 7.80819 0.766469 7.67136 0.710851C7.46759 0.69667 7.26334 0.691599 7.05923 0.692281C6.93572 0.692293 6.81221 0.692305 6.68496 0.692318C6.55206 0.693163 6.41917 0.694007 6.28224 0.694877C6.14585 0.695108 6.00945 0.69534 5.86893 0.695578C5.43292 0.696494 4.99691 0.698548 4.56091 0.700628C4.26546 0.701448 3.97001 0.702194 3.67456 0.702864C2.94996 0.704669 2.22535 0.707407 1.50075 0.710851C1.45648 0.602888 1.41222 0.494924 1.36661 0.383688Z" fill="url(#paint9_linear_383_109)"/>
<path d="M5.59622 4.79314C5.72413 4.79567 5.85204 4.7982 5.98383 4.8008C6.12461 4.80445 6.26538 4.8081 6.41043 4.81186C6.55831 4.81502 6.7062 4.81819 6.85856 4.82145C7.34924 4.83216 7.83989 4.84407 8.33055 4.85599C8.67002 4.86363 9.00949 4.8712 9.34896 4.87869C10.1523 4.89661 10.9557 4.91529 11.759 4.93433C12.6735 4.95596 13.588 4.97663 14.5025 4.99721C16.3839 5.03959 18.2653 5.08318 20.1467 5.12756C20.1467 5.18154 20.1467 5.23552 20.1467 5.29114C15.1445 5.29114 10.1423 5.29114 4.98849 5.29114C4.98849 8.31413 4.98849 11.3371 4.98849 14.4517C4.94422 14.4517 4.89995 14.4517 4.85434 14.4517C4.78794 9.75528 4.78794 9.75528 4.7202 4.96398C5.04377 4.76669 5.23518 4.78485 5.59622 4.79314Z" fill="url(#paint10_linear_383_109)"/>
<path d="M0.404615 0.200435C0.511554 0.200798 0.618493 0.201161 0.728673 0.201536C0.849518 0.201548 0.970362 0.20156 1.09487 0.201573C1.22622 0.202417 1.35756 0.203262 1.49289 0.204131C1.62669 0.204363 1.76048 0.204594 1.89833 0.204833C2.32754 0.205752 2.75673 0.207806 3.18593 0.209882C3.47614 0.210702 3.76635 0.211449 4.05656 0.212119C4.76964 0.213927 5.48271 0.216668 6.19578 0.220106C6.19578 0.274088 6.19578 0.32807 6.19578 0.383688C4.60216 0.383688 3.00853 0.383688 1.36661 0.383688C1.36661 0.491652 1.36661 0.599616 1.36661 0.710851C1.14527 0.710851 0.923935 0.710851 0.69589 0.710851C0.69589 0.818815 0.69589 0.926779 0.69589 1.03801C0.607356 1.03801 0.518821 1.03801 0.427603 1.03801C0.428305 1.22148 0.429008 1.40495 0.429732 1.59398C0.453221 8.31007 0.453221 8.31007 0.293459 11.5072C0.249192 11.5072 0.204924 11.5072 0.159316 11.5072C0.139882 10.37 0.120822 9.23284 0.102003 8.09563C0.0955797 7.71 0.0890756 7.32437 0.0824842 6.93874C0.0194485 3.24511 0.0194485 3.24511 0.0125958 1.51279C0.0117258 1.39823 0.0108558 1.28367 0.00995948 1.16564C0.00975317 0.904913 0.0166316 0.644202 0.0251718 0.383688C0.159316 0.220106 0.159316 0.220106 0.404615 0.200435Z" fill="url(#paint11_linear_383_109)"/>
<path d="M22.6955 30.3191C23.1603 30.643 23.1603 30.643 23.6345 30.9735C23.6345 31.0814 23.6345 31.1894 23.6345 31.3006C23.7009 31.3715 23.7673 31.4423 23.8357 31.5153C24.0369 31.7914 24.0369 31.7914 24.062 32.231C24.0537 32.3558 24.0454 32.4807 24.0369 32.6093C24.1448 32.6531 24.2527 32.697 24.3639 32.7422C24.4773 32.8063 24.5907 32.8704 24.7076 32.9364C24.7519 33.0984 24.7961 33.2603 24.8418 33.4272C24.222 33.4272 23.6023 33.4272 22.9637 33.4272C22.4714 30.8656 22.4714 30.8656 22.6955 30.3191Z" fill="url(#paint12_linear_383_109)"/>
<path d="M36.244 15.9239C36.3399 16.2109 36.3399 16.2109 36.3781 16.5783C35.4858 18.1376 33.9388 19.0069 32.4879 19.5227C32.0321 19.5451 32.0321 19.5451 31.6831 19.5227C32.1929 18.751 32.7087 18.509 33.4725 18.1994C33.8806 18.0292 34.2529 17.8039 34.6342 17.5598C34.7671 17.5058 34.8999 17.4518 35.0367 17.3962C35.0367 17.2882 35.0367 17.1803 35.0367 17.069C35.1252 17.015 35.2138 16.9611 35.305 16.9054C35.305 16.7435 35.305 16.5815 35.305 16.4147C35.3935 16.4147 35.482 16.4147 35.5733 16.4147C35.5733 16.3067 35.5733 16.1988 35.5733 16.0875C35.8415 15.9239 35.8415 15.9239 36.244 15.9239Z" fill="url(#paint13_linear_383_109)"/>
<path d="M33.1587 36.0445C33.1587 36.3144 33.1587 36.5843 33.1587 36.8624C33.38 36.9164 33.6013 36.9704 33.8294 37.026C33.8432 37.1306 33.8571 37.2352 33.8713 37.3429C33.9017 37.4543 33.9322 37.5656 33.9635 37.6803C34.0963 37.7343 34.2291 37.7883 34.366 37.8439C34.366 38.0598 34.366 38.2758 34.366 38.4982C34.6893 38.7703 34.6893 38.7703 35.0367 38.989C35.0809 39.0969 35.1252 39.2049 35.1708 39.3161C36.6759 39.3701 38.181 39.4241 39.7317 39.4797C38.9547 39.9535 38.175 39.9049 37.3223 39.9214C37.1185 39.9268 36.9148 39.9357 36.7112 39.9483C35.0243 40.0512 35.0243 40.0512 34.4076 39.4624C34.1349 39.047 33.9159 38.6294 33.6952 38.1711C33.5198 37.8985 33.3413 37.6288 33.1587 37.3634C32.7562 36.7598 32.7562 36.7598 32.7562 36.2081C33.0245 36.0445 33.0245 36.0445 33.1587 36.0445Z" fill="url(#paint14_linear_383_109)"/>
<path d="M36.1098 33.2636C36.6256 33.8442 37.0691 34.5089 37.4513 35.2266C37.4513 35.3346 37.4513 35.4425 37.4513 35.5538C37.5398 35.5538 37.6283 35.5538 37.7196 35.5538C37.8876 35.8079 38.045 36.0726 38.1974 36.341C38.6871 37.189 39.2149 37.9768 39.7736 38.7583C40 39.1525 40 39.1525 40 39.8069C39.7344 39.8069 39.4688 39.8069 39.1951 39.8069C39.2394 39.6989 39.2837 39.5909 39.3293 39.4797C39.3171 39.0643 39.3171 39.0643 39.1951 38.6618C39.1125 38.616 39.0298 38.5703 38.9447 38.5231C38.4732 38.2125 38.3203 37.6556 38.0764 37.0931C37.8208 36.6406 37.5674 36.4819 37.183 36.2081C37.0393 35.8316 36.904 35.45 36.7805 35.063C36.692 35.009 36.6035 34.955 36.5123 34.8994C36.5123 34.7375 36.5123 34.5755 36.5123 34.4087C36.3795 34.3547 36.2467 34.3007 36.1098 34.2451C36.1098 33.9212 36.1098 33.5973 36.1098 33.2636Z" fill="url(#paint15_linear_383_109)"/>
<path d="M22.5613 2.34667C22.6056 2.34667 22.6499 2.34667 22.6955 2.34667C22.7397 2.94047 22.784 3.53427 22.8296 4.14607C22.9668 4.14025 23.1039 4.13444 23.2452 4.12845C23.7625 4.10685 24.2798 4.08681 24.7971 4.06719C25.0194 4.05855 25.2417 4.04951 25.464 4.04003C27.2098 3.966 28.9041 3.94438 30.6099 4.47323C30.6099 4.63518 30.6099 4.79712 30.6099 4.96398C30.8313 4.96398 31.0526 4.96398 31.2807 4.96398C31.4135 5.28787 31.4135 5.28787 31.5489 5.6183C31.4189 5.57297 31.2889 5.52763 31.1549 5.48092C29.8488 5.04429 28.6089 4.84426 27.2563 4.80039C27.2563 4.74641 27.2563 4.69243 27.2563 4.63681C27.4777 4.58283 27.699 4.52885 27.9271 4.47323C25.3374 4.39226 25.3374 4.39226 22.6955 4.30965C22.5261 3.89665 22.5481 3.60428 22.5529 3.14413C22.5541 2.99526 22.5554 2.84638 22.5566 2.693C22.5582 2.57871 22.5597 2.46442 22.5613 2.34667Z" fill="url(#paint16_linear_383_109)"/>
<path d="M18.9394 28.6833C19.135 28.6745 19.3307 28.6681 19.5263 28.6629C19.6353 28.6591 19.7442 28.6553 19.8564 28.6514C20.1467 28.6833 20.1467 28.6833 20.415 29.0105C20.4455 29.4681 20.4455 29.4681 20.4412 30.0444C20.4403 30.25 20.4395 30.4556 20.4386 30.6674C20.4363 30.8831 20.4341 31.0988 20.4318 31.3211C20.4304 31.5402 20.4292 31.7594 20.4281 31.9786C20.4249 32.516 20.4205 33.0534 20.415 33.5908C20.3265 33.4828 20.2379 33.3748 20.1467 33.2636C19.7909 33.235 19.4492 33.2257 19.0935 33.2317C18.9377 33.2324 18.9377 33.2324 18.7788 33.2331C18.4467 33.2349 18.1146 33.239 17.7824 33.2432C17.5575 33.2448 17.3325 33.2463 17.1075 33.2476C16.5556 33.2512 16.0036 33.2569 15.4517 33.2636C15.9268 32.9043 16.3098 32.8984 16.8623 32.9045C17.1139 32.9061 17.1139 32.9061 17.3706 32.9077C17.5452 32.9104 17.7199 32.9132 17.8998 32.916C18.0765 32.9175 18.2533 32.9189 18.4353 32.9205C18.8717 32.9243 19.308 32.9297 19.7443 32.9364C20.0239 31.6571 19.8839 30.3082 19.7443 29.0105C19.523 29.0105 19.3016 29.0105 19.0736 29.0105C19.0293 28.9025 18.985 28.7946 18.9394 28.6833Z" fill="url(#paint17_linear_383_109)"/>
<path d="M20.9215 14.4331C21.0838 14.434 21.246 14.4349 21.4132 14.4357C21.5883 14.4363 21.7634 14.4368 21.9438 14.4373C22.1301 14.4387 22.3163 14.4401 22.5026 14.4415C22.6894 14.4423 22.8762 14.4431 23.063 14.4437C23.5218 14.4457 23.9806 14.4484 24.4393 14.4517C24.4393 14.6137 24.4393 14.7756 24.4393 14.9425C22.5801 14.8615 22.5801 14.8615 20.6833 14.7789C20.6916 15.2276 20.6999 15.6763 20.7085 16.1387C20.7094 16.2794 20.7102 16.4201 20.7112 16.5651C20.7229 16.9132 20.7413 17.2233 20.8174 17.5598C21.1422 17.8822 21.1422 17.8822 21.4882 18.0505C21.4882 18.1585 21.4882 18.2664 21.4882 18.3777C21.5767 18.3777 21.6652 18.3777 21.7565 18.3777C21.7122 18.5396 21.6679 18.7016 21.6223 18.8684C21.4895 18.8684 21.3567 18.8684 21.2199 18.8684C21.1756 18.7065 21.1313 18.5445 21.0857 18.3777C20.9972 18.3777 20.9087 18.3777 20.8174 18.3777C20.5362 18.0805 20.4258 17.8313 20.3807 17.3806C20.3705 16.9656 20.3734 16.5537 20.3815 16.1387C20.3822 15.9947 20.3829 15.8508 20.3836 15.7025C20.3962 14.4593 20.3962 14.4593 20.9215 14.4331Z" fill="url(#paint18_linear_383_109)"/>
<path d="M11.2932 14.7789C13.4623 14.7789 15.6314 14.7789 17.8663 14.7789C17.8663 16.2364 17.8663 17.6939 17.8663 19.1956C17.5564 19.1416 17.2465 19.0876 16.9273 19.032C16.9273 18.924 16.9273 18.8161 16.9273 18.7048C17.1486 18.7048 17.37 18.7048 17.598 18.7048C17.6423 17.5172 17.6865 16.3296 17.7321 15.106C17.4665 15.214 17.2009 15.322 16.9273 15.4332C16.8609 15.2713 16.8609 15.2713 16.7931 15.106C16.5358 15.1111 16.5358 15.1111 16.2733 15.1163C15.7535 15.1265 15.7535 15.1265 15.4517 14.9425C15.4517 15.0504 15.4517 15.1584 15.4517 15.2696C15.3493 15.2393 15.247 15.2089 15.1415 15.1776C14.769 15.0687 14.769 15.0687 14.3785 15.2696C14.1546 15.2174 13.9311 15.1623 13.7078 15.106C13.292 15.0623 12.8755 15.0385 12.4586 15.014C12.3465 15.007 12.2343 14.9999 12.1188 14.9926C11.8436 14.9754 11.5684 14.9588 11.2932 14.9425C11.2932 14.8885 11.2932 14.8345 11.2932 14.7789Z" fill="url(#paint19_linear_383_109)"/>
<path d="M36.9147 5.12756C37.7954 6.0512 38.1404 7.85173 38.2561 9.2171C38.2952 10.2757 38.2821 11.2818 38.122 12.3252C38.0777 12.3252 38.0335 12.3252 37.9878 12.3252C37.6798 9.24654 37.6798 9.24654 37.7196 7.74486C37.5868 7.74486 37.454 7.74486 37.3171 7.74486C37.2993 7.62446 37.2815 7.50405 37.2632 7.38C37.2395 7.22037 37.2158 7.06075 37.1914 6.89628C37.1563 6.66001 37.1563 6.66001 37.1206 6.41896C37.0552 5.9876 36.9862 5.55745 36.9147 5.12756Z" fill="url(#paint20_linear_383_109)"/>
<path d="M27.7929 16.4147C27.8815 16.4147 27.97 16.4147 28.0612 16.4147C28.0612 16.5227 28.0612 16.6306 28.0612 16.7419C28.194 16.7419 28.3268 16.7419 28.4636 16.7419C28.4636 16.9038 28.4636 17.0657 28.4636 17.2326C28.5522 17.2866 28.6407 17.3406 28.7319 17.3962C28.8669 17.6682 29.001 17.9409 29.1344 18.2141C29.2063 18.3018 29.2782 18.3895 29.3523 18.4799C29.5368 18.7048 29.5368 18.7048 29.6709 19.1956C29.9833 19.3636 29.9833 19.3636 30.35 19.4716C30.4733 19.5127 30.5966 19.5539 30.7236 19.5962C30.8189 19.626 30.9142 19.6557 31.0124 19.6863C30.6257 20.1578 30.3444 20.1659 29.8051 20.1771C29.256 19.6035 28.8401 18.9166 28.4217 18.2039C28.3608 18.1038 28.2998 18.0038 28.237 17.9007C27.91 17.346 27.7929 17.1173 27.7929 16.4147Z" fill="url(#paint21_linear_383_109)"/>
<path d="M0.159316 11.5072C0.203583 11.5072 0.24785 11.5072 0.293459 11.5072C0.29682 11.6822 0.300181 11.8572 0.303644 12.0374C0.316289 12.6874 0.329727 13.3374 0.343402 13.9873C0.349208 14.2685 0.354799 14.5496 0.36017 14.8308C0.367935 15.2352 0.376472 15.6397 0.385159 16.0441C0.3874 16.1695 0.389642 16.295 0.391952 16.4242C0.404859 16.9927 0.446847 17.5018 0.561746 18.0505C0.574174 18.3706 0.579182 18.6911 0.578514 19.0116C0.57886 19.1765 0.579205 19.3413 0.579562 19.5112C0.561746 20.0135 0.561746 20.0135 0.49415 20.4915C0.417835 21.0689 0.414696 21.6168 0.419219 22.2014C0.420429 22.4051 0.421639 22.6088 0.422887 22.8187C0.424443 22.9726 0.425999 23.1265 0.427603 23.2851C0.339068 23.2851 0.250533 23.2851 0.159315 23.2851C0.159315 19.3984 0.159316 15.5117 0.159316 11.5072Z" fill="url(#paint22_linear_383_109)"/>
<path d="M33.9635 1.52876C35.6914 2.79844 35.6914 2.79844 35.9757 3.49174C35.7543 3.49174 35.533 3.49174 35.305 3.49174C35.305 3.32979 35.305 3.16785 35.305 3.001C35.1583 2.95713 35.0117 2.91327 34.8606 2.86808C34.3835 2.68072 34.2917 2.58322 33.9635 2.18309C33.7843 2.23584 33.6055 2.29068 33.427 2.34667C32.9994 2.22398 32.9994 2.22398 32.6221 2.01951C32.5778 1.85756 32.5336 1.69561 32.4879 1.52876C32.3994 1.4208 32.3109 1.31283 32.2197 1.2016C32.8668 0.938555 33.3533 1.19677 33.9635 1.52876Z" fill="url(#paint23_linear_383_109)"/>
<path d="M4.45191 4.96398C4.54045 4.96398 4.62898 4.96398 4.7202 4.96398C4.72354 5.86588 4.72596 6.76779 4.72757 7.6697C4.72824 7.97589 4.72915 8.28207 4.73032 8.58825C4.73197 9.03089 4.73271 9.47352 4.7333 9.91616C4.73399 10.0508 4.73469 10.1855 4.7354 10.3243C4.73547 11.2725 4.67615 12.2014 4.58606 13.1431C4.54179 13.1431 4.49752 13.1431 4.45191 13.1431C4.42941 12.1533 4.40788 11.1636 4.38723 10.1737C4.38007 9.83705 4.37265 9.50035 4.36496 9.16366C4.35395 8.67967 4.34389 8.19566 4.33401 7.71164C4.33039 7.56115 4.32676 7.41067 4.32302 7.25563C4.31898 7.04446 4.31898 7.04446 4.31486 6.82903C4.31217 6.70553 4.30949 6.58202 4.30673 6.45477C4.31808 6.09921 4.37852 5.79796 4.45191 5.45472C4.45191 5.29277 4.45191 5.13083 4.45191 4.96398Z" fill="url(#paint24_linear_383_109)"/>
<path d="M22.1589 0.0565242C23.1752 0.0439756 24.1915 0.0354429 25.2079 0.0295671C25.5529 0.0271149 25.8979 0.0237779 26.2429 0.019503C29.9234 -0.0249252 29.9234 -0.0249252 31.4148 0.54727C31.3263 0.655234 31.2377 0.763197 31.1465 0.874433C30.753 0.840566 30.753 0.840566 30.283 0.741523C30.1282 0.710104 29.9734 0.678685 29.814 0.646313C29.4026 0.54727 29.4026 0.54727 29.0002 0.383688C28.7801 0.364888 28.5594 0.354845 28.3388 0.350101C28.1374 0.345207 28.1374 0.345207 27.932 0.340214C27.7874 0.33748 27.6427 0.334746 27.4937 0.33193C27.2713 0.326831 27.2713 0.326831 27.0443 0.321628C26.57 0.310923 26.0958 0.301286 25.6215 0.291673C25.3002 0.284608 24.9789 0.277474 24.6576 0.270267C23.8694 0.252741 23.0812 0.236092 22.293 0.220106C22.2488 0.382052 22.2045 0.543998 22.1589 0.710851C22.1589 0.494923 22.1589 0.278995 22.1589 0.0565242Z" fill="url(#paint25_linear_383_109)"/>
<path d="M25.11 24.5938C25.6316 24.7277 25.9222 24.9679 26.3173 25.4117C26.3644 25.5298 26.4114 25.6479 26.4599 25.7695C26.5657 26.1021 26.5657 26.1021 26.8707 26.1887C26.9537 26.2022 27.0367 26.2157 27.1222 26.2296C27.1222 26.4455 27.1222 26.6615 27.1222 26.8839C27.2107 26.8839 27.2993 26.8839 27.3905 26.8839C27.4348 27.0998 27.479 27.3158 27.5246 27.5382C27.4361 27.5382 27.3476 27.5382 27.2563 27.5382C27.2121 27.6462 27.1678 27.7542 27.1222 27.8654C25.7059 25.6353 25.7059 25.6353 25.11 24.5938Z" fill="url(#paint26_linear_383_109)"/>
<path d="M32.8904 13.3066C33.0329 13.6134 33.0329 13.6134 33.1587 13.961C33.0245 14.2881 33.0245 14.2881 32.6221 14.6153C32.6664 14.7233 32.7106 14.8312 32.7562 14.9425C32.5985 14.9728 32.5985 14.9728 32.4376 15.0038C32.0667 15.0719 32.0667 15.0719 31.8172 15.4332C31.5825 15.3821 31.5825 15.3821 31.2807 15.2696C31.0127 15.2131 30.7444 15.1582 30.4758 15.106C30.4758 15.0521 30.4758 14.9981 30.4758 14.9425C30.5536 14.9146 30.6314 14.8868 30.7116 14.8581C31.5638 14.5357 32.2813 14.1319 32.8904 13.3066Z" fill="url(#paint27_linear_383_109)"/>
<path d="M30.6099 4.47323C30.6099 4.63518 30.6099 4.79712 30.6099 4.96398C30.8313 4.96398 31.0526 4.96398 31.2807 4.96398C31.3692 5.1799 31.4577 5.39583 31.5489 5.6183C31.3539 5.5503 31.3539 5.5503 31.1549 5.48092C29.8488 5.04429 28.6089 4.84426 27.2563 4.80039C27.2563 4.74641 27.2563 4.69243 27.2563 4.63681C28.3766 4.52513 29.4858 4.44805 30.6099 4.47323Z" fill="url(#paint28_linear_383_109)"/>
<path d="M33.0245 28.5197C33.6461 29.0574 34.0405 29.6935 34.475 30.4418C34.5423 30.5559 34.6097 30.67 34.6791 30.7875C34.8438 31.0669 35.0074 31.3472 35.1708 31.6278C35.038 31.7897 34.9052 31.9517 34.7684 32.1185C34.532 31.7616 34.3526 31.43 34.1899 31.0144C33.9485 30.4475 33.6616 29.9851 33.3337 29.4897C33.1524 29.1627 33.0821 28.9053 33.0245 28.5197Z" fill="url(#paint29_linear_383_109)"/>
<path d="M22.9637 29.5012C23.4122 30.0087 23.7367 30.554 24.0704 31.1779C24.1652 31.3542 24.26 31.5305 24.3576 31.7121C24.4288 31.8462 24.5001 31.9804 24.5735 32.1185C24.4422 32.2856 24.3079 32.4491 24.171 32.6093C24.1268 32.6093 24.0825 32.6093 24.0369 32.6093C23.9926 32.2314 23.9484 31.8535 23.9028 31.4642C23.7699 31.4102 23.6371 31.3562 23.5003 31.3006C23.5446 31.1927 23.5889 31.0847 23.6345 30.9735C23.5542 30.96 23.474 30.9465 23.3913 30.9326C23.0135 30.7746 22.8996 30.5664 22.6955 30.1556C22.6955 30.0476 22.6955 29.9396 22.6955 29.8284C22.784 29.8284 22.8725 29.8284 22.9637 29.8284C22.9637 29.7204 22.9637 29.6125 22.9637 29.5012Z" fill="url(#paint30_linear_383_109)"/>
<path d="M4.7202 19.032C4.80874 19.1939 4.89727 19.3559 4.98849 19.5227C4.94422 19.5767 4.89995 19.6307 4.85434 19.6863C4.83286 20.146 4.81953 20.602 4.8119 21.0621C4.80911 21.1998 4.80633 21.3376 4.80345 21.4795C4.79466 21.9212 4.78676 22.3629 4.77889 22.8046C4.7731 23.1033 4.76725 23.4021 4.76134 23.7008C4.74694 24.4347 4.73336 25.1685 4.7202 25.9024C4.67593 25.9024 4.63167 25.9024 4.58606 25.9024C4.5827 25.7622 4.57934 25.6219 4.57587 25.4773C4.56309 24.9554 4.54978 24.4335 4.53611 23.9116C4.53031 23.686 4.52472 23.4603 4.51935 23.2347C4.51157 22.9099 4.50297 22.585 4.49436 22.2602C4.48698 21.9672 4.48698 21.9672 4.47946 21.6683C4.45688 21.2504 4.40268 20.9057 4.31777 20.5042C4.3927 20.1183 4.3927 20.1183 4.5106 19.7272C4.54916 19.5965 4.58772 19.4657 4.62745 19.331C4.65806 19.2324 4.68867 19.1337 4.7202 19.032Z" fill="url(#paint31_linear_383_109)"/>
<path d="M27.1893 15.0875C27.3347 15.0883 27.4801 15.0892 27.63 15.0901C27.8653 15.0909 27.8653 15.0909 28.1055 15.0917C28.3533 15.0937 28.3533 15.0937 28.6062 15.0958C28.8548 15.0969 28.8548 15.0969 29.1084 15.0981C29.5195 15.1 29.9306 15.1027 30.3416 15.106C30.2974 15.214 30.2531 15.322 30.2075 15.4332C29.3222 15.4872 28.4368 15.5412 27.5246 15.5968C27.5246 15.7587 27.5246 15.9207 27.5246 16.0875C27.2731 16.0466 27.2731 16.0466 26.9881 15.9239C26.8204 15.5866 26.8204 15.5866 26.7198 15.2696C26.8539 15.106 26.8539 15.106 27.1893 15.0875Z" fill="url(#paint32_linear_383_109)"/>
<path d="M0.905489 0.373464C1.05766 0.376838 1.20983 0.380212 1.36661 0.383688C1.36661 0.491652 1.36661 0.599616 1.36661 0.710851C1.14527 0.710851 0.923935 0.710851 0.69589 0.710851C0.69589 0.818815 0.69589 0.926779 0.69589 1.03801C0.607356 1.03801 0.518821 1.03801 0.427603 1.03801C0.427603 3.25128 0.427603 5.46454 0.427603 7.74486C0.383335 7.74486 0.339068 7.74486 0.293459 7.74486C0.290069 6.72281 0.287713 5.70076 0.28609 4.67871C0.285414 4.33072 0.284497 3.98274 0.283339 3.63475C0.281719 3.13574 0.280953 2.63673 0.280359 2.13772C0.279666 1.98112 0.278974 1.82453 0.278261 1.66319C0.278251 1.5191 0.278241 1.37501 0.27823 1.22656C0.277932 1.09906 0.277634 0.971554 0.277327 0.84019C0.307739 0.287967 0.438323 0.383459 0.905489 0.373464Z" fill="url(#paint33_linear_383_109)"/>
<path d="M18.9394 28.6833C19.135 28.6745 19.3307 28.6681 19.5263 28.6629C19.6353 28.6591 19.7442 28.6553 19.8564 28.6514C20.1467 28.6833 20.1467 28.6833 20.415 29.0105C20.4455 29.4681 20.4455 29.4681 20.4412 30.0444C20.4399 30.3528 20.4399 30.3528 20.4386 30.6674C20.4363 30.8831 20.4341 31.0988 20.4318 31.3211C20.4304 31.5402 20.4292 31.7594 20.4281 31.9786C20.4249 32.516 20.4205 33.0534 20.415 33.5908C20.3707 33.5908 20.3265 33.5908 20.2809 33.5908C20.1959 32.1167 20.1236 30.6529 20.1467 29.1741C19.9724 29.1538 19.7981 29.1336 19.6185 29.1127C19.3214 29.0782 19.3214 29.0782 19.0736 29.0105C19.0293 28.9025 18.985 28.7946 18.9394 28.6833Z" fill="url(#paint34_linear_383_109)"/>
<path d="M22.4272 28.8469C22.6042 29.0088 22.7813 29.1708 22.9637 29.3376C22.9637 29.4996 22.9637 29.6615 22.9637 29.8284C22.8752 29.8284 22.7867 29.8284 22.6955 29.8284C22.7397 29.9903 22.784 30.1523 22.8296 30.3191C22.8104 30.4111 22.7912 30.503 22.7714 30.5977C22.6612 31.1426 22.6815 31.6838 22.6871 32.2412C22.6877 32.3553 22.6883 32.4694 22.6889 32.5869C22.6905 32.867 22.6929 33.1471 22.6955 33.4272C22.6069 33.4272 22.5184 33.4272 22.4272 33.4272C22.4272 31.9157 22.4272 30.4042 22.4272 28.8469Z" fill="url(#paint35_linear_383_109)"/>
<path d="M37.7196 12.1616C37.8081 12.2695 37.8966 12.3775 37.9878 12.4887C37.9187 13.6697 37.5646 14.7223 36.9147 15.5968C36.8704 15.4348 36.8262 15.2729 36.7805 15.106C36.8677 14.939 36.8677 14.939 36.9566 14.7687C37.2277 14.1932 37.2955 13.679 37.3805 13.0293C37.4513 12.6523 37.4513 12.6523 37.7196 12.1616Z" fill="url(#paint36_linear_383_109)"/>
<path d="M20.415 14.6153C20.4593 14.6153 20.5035 14.6153 20.5492 14.6153C20.5607 14.8222 20.5723 15.029 20.5843 15.2421C20.6031 15.5137 20.6222 15.7853 20.6414 16.0569C20.6486 16.1932 20.6557 16.3295 20.6631 16.47C20.692 16.8508 20.7241 17.1944 20.8174 17.5598C21.1445 17.8868 21.1445 17.8868 21.4882 18.0505C21.4882 18.1585 21.4882 18.2664 21.4882 18.3777C21.5767 18.3777 21.6652 18.3777 21.7565 18.3777C21.7122 18.5396 21.6679 18.7016 21.6223 18.8684C21.4895 18.8684 21.3567 18.8684 21.2199 18.8684C21.1756 18.7065 21.1313 18.5445 21.0857 18.3777C20.9972 18.3777 20.9087 18.3777 20.8174 18.3777C20.5341 18.0798 20.4251 17.8315 20.3829 17.378C20.3754 16.9604 20.38 16.5459 20.3899 16.1284C20.3917 15.9831 20.3935 15.8379 20.3954 15.6882C20.4001 15.3304 20.4067 14.9729 20.415 14.6153Z" fill="url(#paint37_linear_383_109)"/>
<path d="M33.5611 18.2141C33.6496 18.3221 33.7382 18.43 33.8294 18.5413C33.7409 18.5413 33.6523 18.5413 33.5611 18.5413C33.5611 18.7032 33.5611 18.8651 33.5611 19.032C32.8998 19.3657 32.4102 19.5892 31.6831 19.5227C32.2263 18.7322 32.7518 18.4785 33.5611 18.2141Z" fill="url(#paint38_linear_383_109)"/>
<path d="M27.7929 16.4147C27.8815 16.4147 27.97 16.4147 28.0612 16.4147C28.0612 16.5227 28.0612 16.6306 28.0612 16.7419C28.194 16.7419 28.3268 16.7419 28.4636 16.7419C28.4636 16.9038 28.4636 17.0657 28.4636 17.2326C28.5522 17.2866 28.6407 17.3406 28.7319 17.3962C28.9483 18.0211 29.028 18.3866 28.8661 19.032C28.6857 18.7198 28.5072 18.4059 28.3295 18.0914C28.2299 17.9168 28.1303 17.7422 28.0277 17.5623C27.7929 17.069 27.7929 17.069 27.7929 16.4147Z" fill="url(#paint39_linear_383_109)"/>
<path d="M30.4758 24.7574C31.2206 25.1702 31.6179 25.9365 32.0855 26.7203C31.997 26.8283 31.9084 26.9363 31.8172 27.0475C31.4651 26.9862 31.4651 26.9862 31.1465 26.8839C31.1465 26.614 31.1465 26.3441 31.1465 26.066C31.058 26.066 30.9694 26.066 30.8782 26.066C30.734 25.6321 30.5973 25.2017 30.4758 24.7574Z" fill="url(#paint40_linear_383_109)"/>
<path d="M31.4148 33.4272C31.6831 33.7544 31.6831 33.7544 31.7921 34.0508C31.9507 34.4492 31.9507 34.4492 32.3035 34.8279C32.6221 35.2266 32.6221 35.2266 32.6221 35.7173C32.233 35.6596 32.0996 35.5722 31.8277 35.2157C31.7468 35.081 31.6659 34.9462 31.5825 34.8074C31.5002 34.6722 31.4179 34.5371 31.3331 34.3978C31.2715 34.2934 31.2099 34.1891 31.1465 34.0815C31.235 34.0275 31.3236 33.9736 31.4148 33.9179C31.4148 33.756 31.4148 33.594 31.4148 33.4272Z" fill="url(#paint41_linear_383_109)"/>
<path d="M36.244 15.9239C36.353 16.2 36.353 16.2 36.3781 16.5783C36.0511 17.0281 36.0511 17.0281 35.7074 17.3962C35.5746 17.3422 35.4418 17.2882 35.305 17.2326C35.305 16.9627 35.305 16.6928 35.305 16.4147C35.3935 16.4147 35.482 16.4147 35.5733 16.4147C35.5733 16.3067 35.5733 16.1988 35.5733 16.0875C35.8415 15.9239 35.8415 15.9239 36.244 15.9239Z" fill="url(#paint42_linear_383_109)"/>
<path d="M31.6831 5.6183C32.4544 5.74099 32.4544 5.74099 32.7562 6.10905C33.0337 6.21415 33.0337 6.21415 33.2928 6.27263C33.3371 6.70448 33.3813 7.13634 33.427 7.58128C33.3384 7.46657 33.2499 7.35186 33.1587 7.23367C32.7717 6.75772 32.3401 6.37371 31.8943 5.98381C31.8246 5.91717 31.7549 5.85054 31.6831 5.78188C31.6831 5.7279 31.6831 5.67392 31.6831 5.6183Z" fill="url(#paint43_linear_383_109)"/>
<path d="M33.427 7.74486C33.5598 7.74486 33.6926 7.74486 33.8294 7.74486C34.2712 8.90555 34.1879 10.2759 33.9635 11.5072C33.9193 11.5072 33.875 11.5072 33.8294 11.5072C33.8325 11.3944 33.8356 11.2816 33.8388 11.1654C33.858 9.94958 33.7418 8.89664 33.427 7.74486Z" fill="url(#paint44_linear_383_109)"/>
<path d="M33.6952 38.0075C33.9551 38.0688 33.9551 38.0688 34.2318 38.1711C34.2761 38.279 34.3204 38.387 34.366 38.4982C34.5361 38.6146 34.5361 38.6146 34.7097 38.7334C34.8176 38.8177 34.9255 38.9021 35.0367 38.989C35.0367 39.1509 35.0367 39.3129 35.0367 39.4797C34.9481 39.5877 34.8596 39.6956 34.7684 39.8069C34.5891 39.538 34.4104 39.2687 34.2318 38.9992C34.1322 38.8493 34.0326 38.6993 33.93 38.5449C33.6952 38.1711 33.6952 38.1711 33.6952 38.0075Z" fill="url(#paint45_linear_383_109)"/>
<path d="M30.8195 15.0958C30.9717 15.0992 31.1239 15.1026 31.2807 15.106C31.1465 15.4332 31.1465 15.4332 30.9153 15.5344C30.5657 15.6058 30.2372 15.6152 29.8826 15.6128C29.7452 15.6122 29.6077 15.6117 29.466 15.6112C29.3234 15.6098 29.1807 15.6084 29.0337 15.607C28.889 15.6063 28.7443 15.6055 28.5952 15.6048C28.2383 15.6028 27.8815 15.6002 27.5246 15.5968C27.5246 15.5428 27.5246 15.4888 27.5246 15.4332C27.6052 15.4291 27.6858 15.425 27.7688 15.4208C28.1318 15.4019 28.4947 15.3818 28.8577 15.3616C28.9845 15.3552 29.1114 15.3488 29.242 15.3421C29.3626 15.3353 29.4833 15.3284 29.6075 15.3214C29.7192 15.3154 29.8309 15.3094 29.946 15.3032C30.3703 15.2487 30.304 15.1068 30.8195 15.0958Z" fill="url(#paint46_linear_383_109)"/>
<path d="M20.2809 2.0195C20.3251 2.0195 20.3694 2.0195 20.415 2.0195C20.415 3.04516 20.415 4.07082 20.415 5.12756C20.1051 5.07358 19.7953 5.01959 19.476 4.96398C19.6036 4.92412 19.6036 4.92412 19.7338 4.88346C20.0686 4.64448 20.0686 4.64448 20.1237 4.03233C20.1451 3.7911 20.1638 3.54951 20.1803 3.30771C20.1906 3.18435 20.201 3.061 20.2117 2.9339C20.237 2.62937 20.2592 2.32446 20.2809 2.0195Z" fill="url(#paint47_linear_383_109)"/>
<path d="M27.7929 20.0135C28.3622 20.6482 28.7466 21.3291 29.1344 22.1401C28.9573 22.0861 28.7802 22.0321 28.5978 21.9765C28.5978 21.8685 28.5978 21.7605 28.5978 21.6493C28.5092 21.6493 28.4207 21.6493 28.3295 21.6493C27.9486 21.0482 27.7929 20.7874 27.7929 20.0135Z" fill="url(#paint48_linear_383_109)"/>
<path d="M4.45191 4.96398C4.54045 4.96398 4.62898 4.96398 4.7202 4.96398C4.73408 6.01366 4.686 7.02951 4.58606 8.07203C4.54179 8.07203 4.49752 8.07203 4.45191 8.07203C4.42565 7.75863 4.40076 7.44506 4.37646 7.13143C4.36245 6.95684 4.34845 6.78224 4.33401 6.60235C4.31949 6.16128 4.3517 5.87115 4.45191 5.45472C4.45191 5.29277 4.45191 5.13083 4.45191 4.96398Z" fill="url(#paint49_linear_383_109)"/>
<path d="M24.7076 15.106C25.1052 15.5654 25.438 15.9539 25.6466 16.5783C25.295 16.5783 25.0417 16.5271 24.7076 16.4147C24.7076 15.9828 24.7076 15.551 24.7076 15.106Z" fill="url(#paint50_linear_383_109)"/>
<path d="M22.293 20.0135C22.8019 20.2573 23.0554 20.6172 23.3662 21.1586C23.3662 21.2665 23.3662 21.3745 23.3662 21.4857C23.499 21.5397 23.6318 21.5937 23.7686 21.6493C23.6358 21.7033 23.503 21.7573 23.3662 21.8129C23.1865 21.5752 23.0078 21.3365 22.8296 21.0972C22.73 20.9644 22.6304 20.8315 22.5278 20.6947C22.293 20.3407 22.293 20.3407 22.293 20.0135Z" fill="url(#paint51_linear_383_109)"/>
<path d="M28.8661 18.0505C29.2504 18.2223 29.3811 18.3288 29.5787 18.7764C29.6709 19.1956 29.6709 19.1956 29.5368 19.6863C29.2769 19.5125 29.2769 19.5125 29.0002 19.1956C28.8996 18.5924 28.8996 18.5924 28.8661 18.0505Z" fill="url(#paint52_linear_383_109)"/>
<path d="M22.0247 14.7789C22.8658 14.7789 23.7069 14.7789 24.5735 14.7789C24.6177 14.8868 24.662 14.9948 24.7076 15.106C24.337 15.2038 24.0154 15.2696 23.6345 15.2696C23.6345 15.1617 23.6345 15.0537 23.6345 14.9425C22.8376 15.0234 22.8376 15.0234 22.0247 15.106C22.0247 14.9981 22.0247 14.8901 22.0247 14.7789Z" fill="url(#paint53_linear_383_109)"/>
<path d="M27.1222 18.8684C27.3989 19.1445 27.3989 19.1445 27.6588 19.5227C27.6252 19.9726 27.6252 19.9726 27.5246 20.3407C27.3476 20.3407 27.1705 20.3407 26.9881 20.3407C27.0323 19.8548 27.0766 19.369 27.1222 18.8684Z" fill="url(#paint54_linear_383_109)"/>
<path d="M0.0251714 30.3191C0.0694388 30.3191 0.113706 30.3191 0.159315 30.3191C0.24785 31.3448 0.336385 32.3705 0.427603 33.4272C0.2948 33.4272 0.161998 33.4272 0.0251714 33.4272C0.0251714 32.4015 0.0251714 31.3759 0.0251714 30.3191Z" fill="url(#paint55_linear_383_109)"/>
<path d="M27.3905 19.6863C27.5233 19.7403 27.6561 19.7943 27.7929 19.8499C27.891 20.1734 27.9799 20.5011 28.0612 20.8314C28.194 21.0743 28.194 21.0743 28.3295 21.3221C28.2792 21.68 28.2792 21.68 28.1953 21.9765C27.6907 21.361 27.5756 20.5085 27.3905 19.6863Z" fill="url(#paint56_linear_383_109)"/>
<path d="M28.3295 28.8469C28.7319 29.0105 28.7319 29.0105 28.8593 29.3127C28.8919 29.4323 28.9246 29.5518 28.9583 29.675C28.992 29.795 29.0257 29.915 29.0605 30.0386C29.0849 30.1312 29.1092 30.2238 29.1344 30.3191C29.0016 30.3191 28.8688 30.3191 28.7319 30.3191C28.4301 29.8591 28.4301 29.8591 28.1953 29.3376C28.2396 29.1757 28.2839 29.0138 28.3295 28.8469Z" fill="url(#paint57_linear_383_109)"/>
<path d="M4.58606 25.9024C4.63032 25.9024 4.67459 25.9024 4.7202 25.9024C4.76447 26.8201 4.80874 27.7378 4.85434 28.6833C4.72154 28.6833 4.58874 28.6833 4.45191 28.6833C4.49618 27.7656 4.54045 26.8479 4.58606 25.9024Z" fill="url(#paint58_linear_383_109)"/>
<path d="M37.183 13.3066C37.2272 13.3066 37.2715 13.3066 37.3171 13.3066C37.3616 14.0842 37.2589 14.4589 36.9147 15.106C36.9147 15.268 36.9147 15.4299 36.9147 15.5968C36.7376 15.5428 36.5606 15.4888 36.3781 15.4332C36.425 15.3345 36.4718 15.2358 36.5201 15.1342C36.6117 14.9381 36.6117 14.9381 36.7051 14.738C36.7658 14.6089 36.8265 14.4799 36.889 14.3469C37.0345 13.9956 37.1201 13.6907 37.183 13.3066Z" fill="url(#paint59_linear_383_109)"/>
<path d="M28.8661 29.6648C29.3309 29.9887 29.3309 29.9887 29.8051 30.3191C29.6723 30.4001 29.6723 30.4001 29.5368 30.4827C29.4493 30.8139 29.4493 30.8139 29.4026 31.137C29.0643 30.8141 29.0012 30.6516 28.908 30.1249C28.8942 29.9731 28.8803 29.8212 28.8661 29.6648Z" fill="url(#paint60_linear_383_109)"/>
<path d="M32.2197 27.0475C32.6173 27.5068 32.9501 27.8954 33.1587 28.5197C33.0259 28.5197 32.8931 28.5197 32.7562 28.5197C32.7562 28.4118 32.7562 28.3038 32.7562 28.1926C32.5792 28.1926 32.4021 28.1926 32.2197 28.1926C32.2197 27.8147 32.2197 27.4368 32.2197 27.0475Z" fill="url(#paint61_linear_383_109)"/>
<path d="M4.58606 11.5072C4.63032 11.5072 4.67459 11.5072 4.7202 11.5072C4.76447 12.4249 4.80874 13.3426 4.85434 14.2881C4.67728 14.3421 4.50021 14.3961 4.31777 14.4517C4.38417 14.2088 4.38417 14.2088 4.45191 13.961C4.48239 13.5412 4.50773 13.124 4.52737 12.7034C4.53316 12.5886 4.53896 12.4738 4.54492 12.3555C4.55912 12.0728 4.57265 11.79 4.58606 11.5072Z" fill="url(#paint62_linear_383_109)"/>
<path d="M29.6709 4.63681C29.7152 4.74478 29.7595 4.85274 29.8051 4.96397C28.964 4.90999 28.1229 4.85601 27.2563 4.80039C27.2563 4.74641 27.2563 4.69243 27.2563 4.63681C27.5581 4.60484 27.8599 4.57447 28.1618 4.5448C28.3299 4.52772 28.498 4.51064 28.6711 4.49304C29.3236 4.46514 29.3236 4.46514 29.6709 4.63681Z" fill="url(#paint63_linear_383_109)"/>
<path d="M30.6099 32.4457C30.8698 32.5582 30.8698 32.5582 31.1465 32.7729C31.2639 33.1818 31.2639 33.1818 31.2807 33.5908C31.1921 33.6987 31.1036 33.8067 31.0124 33.9179C30.6099 32.8138 30.6099 32.8138 30.6099 32.4457Z" fill="url(#paint64_linear_383_109)"/>
<path d="M32.8904 13.3066C33.0329 13.6134 33.0329 13.6134 33.1587 13.961C33.1144 14.0689 33.0701 14.1769 33.0245 14.2881C32.7589 14.2881 32.4933 14.2881 32.2197 14.2881C32.441 13.9642 32.6623 13.6403 32.8904 13.3066Z" fill="url(#paint65_linear_383_109)"/>
<path d="M35.9757 3.49174C36.3733 3.95108 36.7061 4.33961 36.9147 4.96398C36.7819 4.96398 36.6491 4.96398 36.5123 4.96398C36.5123 4.85601 36.5123 4.74805 36.5123 4.63681C36.4237 4.63681 36.3352 4.63681 36.244 4.63681C35.9757 4.14607 35.9757 4.14607 35.9757 3.49174Z" fill="url(#paint66_linear_383_109)"/>
<path d="M29.8051 0.383688C29.9978 0.374817 30.1907 0.368492 30.3836 0.36324C30.491 0.359445 30.5983 0.355649 30.709 0.351738C31.0124 0.383688 31.0124 0.383688 31.4148 0.710851C30.8088 0.934769 30.397 0.787858 29.8051 0.54727C29.8051 0.493288 29.8051 0.439306 29.8051 0.383688Z" fill="url(#paint67_linear_383_109)"/>
<path d="M22.6955 31.955C22.7397 31.955 22.784 31.955 22.8296 31.955C22.8739 32.5488 22.9181 33.1426 22.9637 33.7544C22.7867 33.7544 22.6096 33.7544 22.4272 33.7544C22.5157 33.1606 22.6042 32.5668 22.6955 31.955Z" fill="url(#paint68_linear_383_109)"/>
<path d="M25.11 24.5938C25.6723 24.7652 25.8097 24.9075 26.1832 25.4117C26.0947 25.4117 26.0061 25.4117 25.9149 25.4117C25.8706 25.5197 25.8264 25.6276 25.7808 25.7389C25.5594 25.361 25.3381 24.9831 25.11 24.5938Z" fill="url(#paint69_linear_383_109)"/>
<path d="M25.6466 16.5783C26.3006 17.3348 26.3006 17.3348 26.4515 17.8869C26.3629 17.9949 26.2744 18.1029 26.1832 18.2141C25.6466 17.1304 25.6466 17.1304 25.6466 16.5783Z" fill="url(#paint70_linear_383_109)"/>
<path d="M32.0855 14.4517C32.0412 14.6137 31.997 14.7756 31.9514 14.9425C31.5824 15.0925 31.3666 15.1238 30.9872 15.1163C30.7341 15.1112 30.7341 15.1112 30.4758 15.106C30.4758 15.0521 30.4758 14.9981 30.4758 14.9425C30.6684 14.8598 30.8613 14.7782 31.0543 14.6971C31.1617 14.6515 31.2691 14.606 31.3797 14.5591C31.6831 14.4517 31.6831 14.4517 32.0855 14.4517Z" fill="url(#paint71_linear_383_109)"/>
<path d="M37.5854 36.5352C37.8453 36.6682 37.8453 36.6682 38.122 36.8624C38.1663 37.0244 38.2105 37.1863 38.2561 37.3532C38.0348 37.4071 37.8135 37.4611 37.5854 37.5167C37.4345 36.9033 37.4345 36.9033 37.5854 36.5352Z" fill="url(#paint72_linear_383_109)"/>
<path d="M29.6709 31.3006C30.0029 31.3816 30.0029 31.3816 30.3416 31.4642C30.2974 31.7881 30.2531 32.112 30.2075 32.4457C29.9392 32.1492 29.9392 32.1492 29.6709 31.7914C29.6709 31.6294 29.6709 31.4675 29.6709 31.3006Z" fill="url(#paint73_linear_383_109)"/>
<path d="M22.9637 29.5012C23.1408 29.7172 23.3179 29.9331 23.5003 30.1556C23.3675 30.2095 23.2347 30.2635 23.0979 30.3191C23.0536 30.4271 23.0094 30.5351 22.9637 30.6463C22.8752 30.3764 22.7867 30.1065 22.6955 29.8284C22.784 29.8284 22.8725 29.8284 22.9637 29.8284C22.9637 29.7204 22.9637 29.6125 22.9637 29.5012Z" fill="url(#paint74_linear_383_109)"/>
<path d="M33.6952 7.09054C33.9369 7.53252 34.098 7.89709 34.2318 8.39919C34.1875 8.56114 34.1433 8.72308 34.0977 8.88994C34.0091 8.51206 33.9206 8.13419 33.8294 7.74486C33.6966 7.74486 33.5638 7.74486 33.427 7.74486C33.427 7.58292 33.427 7.42097 33.427 7.25412C33.5155 7.20014 33.604 7.14616 33.6952 7.09054Z" fill="url(#paint75_linear_383_109)"/>
<path d="M28.4636 0.0565243C29.0695 0.0440029 29.616 0.0397921 30.2075 0.220106C29.8051 0.547269 29.8051 0.547269 29.4723 0.507652C29.3525 0.473492 29.2327 0.439331 29.1092 0.404135C28.9883 0.370818 28.8675 0.337501 28.7429 0.303175C28.6508 0.275762 28.5586 0.248349 28.4636 0.220106C28.4636 0.166124 28.4636 0.112142 28.4636 0.0565243Z" fill="url(#paint76_linear_383_109)"/>
<path d="M37.7196 35.8809C38.0549 36.2592 38.0549 36.2592 38.3903 36.6988C38.3903 36.8608 38.3903 37.0227 38.3903 37.1896C38.3017 37.1896 38.2132 37.1896 38.122 37.1896C37.7539 36.7062 37.7196 36.5721 37.7196 35.8809Z" fill="url(#paint77_linear_383_109)"/>
<path d="M36.1098 16.2511C36.1984 16.2511 36.2869 16.2511 36.3781 16.2511C36.2047 16.7229 36.0214 17.0481 35.7074 17.3962C35.5746 17.3422 35.4418 17.2882 35.305 17.2326C35.4378 17.1786 35.5706 17.1246 35.7074 17.069C35.8617 16.7473 35.8617 16.7473 35.9757 16.4147C36.02 16.3607 36.0642 16.3067 36.1098 16.2511Z" fill="url(#paint78_linear_383_109)"/>
<path d="M33.6952 12.4887C33.7838 12.4887 33.8723 12.4887 33.9635 12.4887C33.9216 12.7954 33.9216 12.7954 33.8294 13.1431C33.6966 13.251 33.5638 13.359 33.427 13.4702C33.2942 13.3623 33.1613 13.2543 33.0245 13.1431C33.1573 12.9811 33.2901 12.8192 33.427 12.6523C33.4712 12.7063 33.5155 12.7603 33.5611 12.8159C33.6054 12.7079 33.6496 12.6 33.6952 12.4887Z" fill="url(#paint79_linear_383_109)"/>
<path d="M32.2197 19.5227C32.2197 19.5767 32.2197 19.6307 32.2197 19.6863C31.7327 19.7943 31.2458 19.9023 30.7441 20.0135C30.8326 19.9595 30.9211 19.9055 31.0124 19.8499C31.0124 19.7419 31.0124 19.634 31.0124 19.5227C31.479 19.3331 31.7447 19.4069 32.2197 19.5227Z" fill="url(#paint80_linear_383_109)"/>
<path d="M26.5856 18.3777C26.8512 18.5396 26.8512 18.5396 27.1222 18.7048C27.0779 18.9208 27.0337 19.1367 26.9881 19.3592C26.8553 19.3052 26.7225 19.2512 26.5856 19.1956C26.5856 18.9257 26.5856 18.6558 26.5856 18.3777Z" fill="url(#paint81_linear_383_109)"/>
<path d="M28.1953 17.7233C28.5274 17.8043 28.5274 17.8043 28.8661 17.8869C28.9103 18.2648 28.9546 18.6427 29.0002 19.032C28.7158 18.6042 28.4461 18.182 28.1953 17.7233Z" fill="url(#paint82_linear_383_109)"/>
<path d="M30.6099 4.96398C30.8313 4.96398 31.0526 4.96398 31.2807 4.96398C31.3692 5.1799 31.4577 5.39583 31.5489 5.6183C31.1948 5.51034 30.8407 5.40237 30.4758 5.29114C30.5201 5.18317 30.5643 5.07521 30.6099 4.96398Z" fill="url(#paint83_linear_383_109)"/>
<path d="M22.4272 28.8469C22.6955 29.0616 22.6955 29.0616 22.9637 29.3376C22.9637 29.4996 22.9637 29.6615 22.9637 29.8284C22.7867 29.7744 22.6096 29.7204 22.4272 29.6648C22.4272 29.3949 22.4272 29.125 22.4272 28.8469Z" fill="url(#paint84_linear_383_109)"/>
<path d="M30.4758 24.7574C30.6971 24.9193 30.9185 25.0813 31.1465 25.2481C31.1022 25.518 31.058 25.7879 31.0124 26.066C30.8335 25.6298 30.6547 25.1936 30.4758 24.7574Z" fill="url(#paint85_linear_383_109)"/>
<path d="M25.5125 16.5783C25.7509 17.0143 25.8982 17.4008 26.0491 17.8869C25.872 17.8329 25.6949 17.779 25.5125 17.7233C25.4613 17.3976 25.4168 17.0702 25.3783 16.7419C25.4226 16.6879 25.4669 16.6339 25.5125 16.5783Z" fill="url(#paint86_linear_383_109)"/>
<defs>
<linearGradient id="paint0_linear_383_109" x1="0.670719" y1="1.30865" x2="44.9335" y2="33.4302" gradientUnits="userSpaceOnUse">
<stop stop-color="#4169E1"/>
<stop offset="1" stop-color="#3C62D2"/>
</linearGradient>
<linearGradient id="paint1_linear_383_109" x1="0.670719" y1="1.30865" x2="44.9335" y2="33.4302" gradientUnits="userSpaceOnUse">
<stop stop-color="#4169E1"/>
<stop offset="1" stop-color="#3C62D2"/>
</linearGradient>
<linearGradient id="paint2_linear_383_109" x1="0.670719" y1="1.30865" x2="44.9335" y2="33.4302" gradientUnits="userSpaceOnUse">
<stop stop-color="#4169E1"/>
<stop offset="1" stop-color="#3C62D2"/>
</linearGradient>
<linearGradient id="paint3_linear_383_109" x1="0.670719" y1="1.30865" x2="44.9335" y2="33.4302" gradientUnits="userSpaceOnUse">
<stop stop-color="#4169E1"/>
<stop offset="1" stop-color="#3C62D2"/>
</linearGradient>
<linearGradient id="paint4_linear_383_109" x1="0.670719" y1="1.30865" x2="44.9335" y2="33.4302" gradientUnits="userSpaceOnUse">
<stop stop-color="#4169E1"/>
<stop offset="1" stop-color="#3C62D2"/>
</linearGradient>
<linearGradient id="paint5_linear_383_109" x1="0.670719" y1="1.30865" x2="44.9335" y2="33.4302" gradientUnits="userSpaceOnUse">
<stop stop-color="#4169E1"/>
<stop offset="1" stop-color="#3C62D2"/>
</linearGradient>
<linearGradient id="paint6_linear_383_109" x1="0.670719" y1="1.30865" x2="44.9335" y2="33.4302" gradientUnits="userSpaceOnUse">
<stop stop-color="#4169E1"/>
<stop offset="1" stop-color="#3C62D2"/>
</linearGradient>
<linearGradient id="paint7_linear_383_109" x1="0.670719" y1="1.30865" x2="44.9335" y2="33.4302" gradientUnits="userSpaceOnUse">
<stop stop-color="#4169E1"/>
<stop offset="1" stop-color="#3C62D2"/>
</linearGradient>
<linearGradient id="paint8_linear_383_109" x1="0.670719" y1="1.30865" x2="44.9335" y2="33.4302" gradientUnits="userSpaceOnUse">
<stop stop-color="#4169E1"/>
<stop offset="1" stop-color="#3C62D2"/>
</linearGradient>
<linearGradient id="paint9_linear_383_109" x1="0.670719" y1="1.30865" x2="44.9335" y2="33.4302" gradientUnits="userSpaceOnUse">
<stop stop-color="#4169E1"/>
<stop offset="1" stop-color="#3C62D2"/>
</linearGradient>
<linearGradient id="paint10_linear_383_109" x1="0.670719" y1="1.30865" x2="44.9335" y2="33.4302" gradientUnits="userSpaceOnUse">
<stop stop-color="#4169E1"/>
<stop offset="1" stop-color="#3C62D2"/>
</linearGradient>
<linearGradient id="paint11_linear_383_109" x1="0.670719" y1="1.30865" x2="44.9335" y2="33.4302" gradientUnits="userSpaceOnUse">
<stop stop-color="#4169E1"/>
<stop offset="1" stop-color="#3C62D2"/>
</linearGradient>
<linearGradient id="paint12_linear_383_109" x1="0.670719" y1="1.30865" x2="44.9335" y2="33.4302" gradientUnits="userSpaceOnUse">
<stop stop-color="#4169E1"/>
<stop offset="1" stop-color="#3C62D2"/>
</linearGradient>
<linearGradient id="paint13_linear_383_109" x1="0.670719" y1="1.30865" x2="44.9335" y2="33.4302" gradientUnits="userSpaceOnUse">
<stop stop-color="#4169E1"/>
<stop offset="1" stop-color="#3C62D2"/>
</linearGradient>
<linearGradient id="paint14_linear_383_109" x1="0.670719" y1="1.30865" x2="44.9335" y2="33.4302" gradientUnits="userSpaceOnUse">
<stop stop-color="#4169E1"/>
<stop offset="1" stop-color="#3C62D2"/>
</linearGradient>
<linearGradient id="paint15_linear_383_109" x1="0.670719" y1="1.30865" x2="44.9335" y2="33.4302" gradientUnits="userSpaceOnUse">
<stop stop-color="#4169E1"/>
<stop offset="1" stop-color="#3C62D2"/>
</linearGradient>
<linearGradient id="paint16_linear_383_109" x1="0.670719" y1="1.30865" x2="44.9335" y2="33.4302" gradientUnits="userSpaceOnUse">
<stop stop-color="#4169E1"/>
<stop offset="1" stop-color="#3C62D2"/>
</linearGradient>
<linearGradient id="paint17_linear_383_109" x1="0.670719" y1="1.30865" x2="44.9335" y2="33.4302" gradientUnits="userSpaceOnUse">
<stop stop-color="#4169E1"/>
<stop offset="1" stop-color="#3C62D2"/>
</linearGradient>
<linearGradient id="paint18_linear_383_109" x1="0.670719" y1="1.30865" x2="44.9335" y2="33.4302" gradientUnits="userSpaceOnUse">
<stop stop-color="#4169E1"/>
<stop offset="1" stop-color="#3C62D2"/>
</linearGradient>
<linearGradient id="paint19_linear_383_109" x1="0.670719" y1="1.30865" x2="44.9335" y2="33.4302" gradientUnits="userSpaceOnUse">
<stop stop-color="#4169E1"/>
<stop offset="1" stop-color="#3C62D2"/>
</linearGradient>
<linearGradient id="paint20_linear_383_109" x1="0.670719" y1="1.30865" x2="44.9335" y2="33.4302" gradientUnits="userSpaceOnUse">
<stop stop-color="#4169E1"/>
<stop offset="1" stop-color="#3C62D2"/>
</linearGradient>
<linearGradient id="paint21_linear_383_109" x1="0.670719" y1="1.30865" x2="44.9335" y2="33.4302" gradientUnits="userSpaceOnUse">
<stop stop-color="#4169E1"/>
<stop offset="1" stop-color="#3C62D2"/>
</linearGradient>
<linearGradient id="paint22_linear_383_109" x1="0.670719" y1="1.30865" x2="44.9335" y2="33.4302" gradientUnits="userSpaceOnUse">
<stop stop-color="#4169E1"/>
<stop offset="1" stop-color="#3C62D2"/>
</linearGradient>
<linearGradient id="paint23_linear_383_109" x1="0.670719" y1="1.30865" x2="44.9335" y2="33.4302" gradientUnits="userSpaceOnUse">
<stop stop-color="#4169E1"/>
<stop offset="1" stop-color="#3C62D2"/>
</linearGradient>
<linearGradient id="paint24_linear_383_109" x1="0.670719" y1="1.30865" x2="44.9335" y2="33.4302" gradientUnits="userSpaceOnUse">
<stop stop-color="#4169E1"/>
<stop offset="1" stop-color="#3C62D2"/>
</linearGradient>
<linearGradient id="paint25_linear_383_109" x1="0.670719" y1="1.30865" x2="44.9335" y2="33.4302" gradientUnits="userSpaceOnUse">
<stop stop-color="#4169E1"/>
<stop offset="1" stop-color="#3C62D2"/>
</linearGradient>
<linearGradient id="paint26_linear_383_109" x1="0.670719" y1="1.30865" x2="44.9335" y2="33.4302" gradientUnits="userSpaceOnUse">
<stop stop-color="#4169E1"/>
<stop offset="1" stop-color="#3C62D2"/>
</linearGradient>
<linearGradient id="paint27_linear_383_109" x1="0.670719" y1="1.30865" x2="44.9335" y2="33.4302" gradientUnits="userSpaceOnUse">
<stop stop-color="#4169E1"/>
<stop offset="1" stop-color="#3C62D2"/>
</linearGradient>
<linearGradient id="paint28_linear_383_109" x1="0.670719" y1="1.30865" x2="44.9335" y2="33.4302" gradientUnits="userSpaceOnUse">
<stop stop-color="#4169E1"/>
<stop offset="1" stop-color="#3C62D2"/>
</linearGradient>
<linearGradient id="paint29_linear_383_109" x1="0.670719" y1="1.30865" x2="44.9335" y2="33.4302" gradientUnits="userSpaceOnUse">
<stop stop-color="#4169E1"/>
<stop offset="1" stop-color="#3C62D2"/>
</linearGradient>
<linearGradient id="paint30_linear_383_109" x1="0.670719" y1="1.30865" x2="44.9335" y2="33.4302" gradientUnits="userSpaceOnUse">
<stop stop-color="#4169E1"/>
<stop offset="1" stop-color="#3C62D2"/>
</linearGradient>
<linearGradient id="paint31_linear_383_109" x1="0.670719" y1="1.30865" x2="44.9335" y2="33.4302" gradientUnits="userSpaceOnUse">
<stop stop-color="#4169E1"/>
<stop offset="1" stop-color="#3C62D2"/>
</linearGradient>
<linearGradient id="paint32_linear_383_109" x1="0.670719" y1="1.30865" x2="44.9335" y2="33.4302" gradientUnits="userSpaceOnUse">
<stop stop-color="#4169E1"/>
<stop offset="1" stop-color="#3C62D2"/>
</linearGradient>
<linearGradient id="paint33_linear_383_109" x1="0.670719" y1="1.30865" x2="44.9335" y2="33.4302" gradientUnits="userSpaceOnUse">
<stop stop-color="#4169E1"/>
<stop offset="1" stop-color="#3C62D2"/>
</linearGradient>
<linearGradient id="paint34_linear_383_109" x1="0.670719" y1="1.30865" x2="44.9335" y2="33.4302" gradientUnits="userSpaceOnUse">
<stop stop-color="#4169E1"/>
<stop offset="1" stop-color="#3C62D2"/>
</linearGradient>
<linearGradient id="paint35_linear_383_109" x1="0.670719" y1="1.30865" x2="44.9335" y2="33.4302" gradientUnits="userSpaceOnUse">
<stop stop-color="#4169E1"/>
<stop offset="1" stop-color="#3C62D2"/>
</linearGradient>
<linearGradient id="paint36_linear_383_109" x1="0.670719" y1="1.30865" x2="44.9335" y2="33.4302" gradientUnits="userSpaceOnUse">
<stop stop-color="#4169E1"/>
<stop offset="1" stop-color="#3C62D2"/>
</linearGradient>
<linearGradient id="paint37_linear_383_109" x1="0.670719" y1="1.30865" x2="44.9335" y2="33.4302" gradientUnits="userSpaceOnUse">
<stop stop-color="#4169E1"/>
<stop offset="1" stop-color="#3C62D2"/>
</linearGradient>
<linearGradient id="paint38_linear_383_109" x1="0.670719" y1="1.30865" x2="44.9335" y2="33.4302" gradientUnits="userSpaceOnUse">
<stop stop-color="#4169E1"/>
<stop offset="1" stop-color="#3C62D2"/>
</linearGradient>
<linearGradient id="paint39_linear_383_109" x1="0.670719" y1="1.30865" x2="44.9335" y2="33.4302" gradientUnits="userSpaceOnUse">
<stop stop-color="#4169E1"/>
<stop offset="1" stop-color="#3C62D2"/>
</linearGradient>
<linearGradient id="paint40_linear_383_109" x1="0.670719" y1="1.30865" x2="44.9335" y2="33.4302" gradientUnits="userSpaceOnUse">
<stop stop-color="#4169E1"/>
<stop offset="1" stop-color="#3C62D2"/>
</linearGradient>
<linearGradient id="paint41_linear_383_109" x1="0.670719" y1="1.30865" x2="44.9335" y2="33.4302" gradientUnits="userSpaceOnUse">
<stop stop-color="#4169E1"/>
<stop offset="1" stop-color="#3C62D2"/>
</linearGradient>
<linearGradient id="paint42_linear_383_109" x1="0.670719" y1="1.30865" x2="44.9335" y2="33.4302" gradientUnits="userSpaceOnUse">
<stop stop-color="#4169E1"/>
<stop offset="1" stop-color="#3C62D2"/>
</linearGradient>
<linearGradient id="paint43_linear_383_109" x1="0.670719" y1="1.30865" x2="44.9335" y2="33.4302" gradientUnits="userSpaceOnUse">
<stop stop-color="#4169E1"/>
<stop offset="1" stop-color="#3C62D2"/>
</linearGradient>
<linearGradient id="paint44_linear_383_109" x1="0.670719" y1="1.30865" x2="44.9335" y2="33.4302" gradientUnits="userSpaceOnUse">
<stop stop-color="#4169E1"/>
<stop offset="1" stop-color="#3C62D2"/>
</linearGradient>
<linearGradient id="paint45_linear_383_109" x1="0.670719" y1="1.30865" x2="44.9335" y2="33.4302" gradientUnits="userSpaceOnUse">
<stop stop-color="#4169E1"/>
<stop offset="1" stop-color="#3C62D2"/>
</linearGradient>
<linearGradient id="paint46_linear_383_109" x1="0.670719" y1="1.30865" x2="44.9335" y2="33.4302" gradientUnits="userSpaceOnUse">
<stop stop-color="#4169E1"/>
<stop offset="1" stop-color="#3C62D2"/>
</linearGradient>
<linearGradient id="paint47_linear_383_109" x1="0.670719" y1="1.30865" x2="44.9335" y2="33.4302" gradientUnits="userSpaceOnUse">
<stop stop-color="#4169E1"/>
<stop offset="1" stop-color="#3C62D2"/>
</linearGradient>
<linearGradient id="paint48_linear_383_109" x1="0.670719" y1="1.30865" x2="44.9335" y2="33.4302" gradientUnits="userSpaceOnUse">
<stop stop-color="#4169E1"/>
<stop offset="1" stop-color="#3C62D2"/>
</linearGradient>
<linearGradient id="paint49_linear_383_109" x1="0.670719" y1="1.30865" x2="44.9335" y2="33.4302" gradientUnits="userSpaceOnUse">
<stop stop-color="#4169E1"/>
<stop offset="1" stop-color="#3C62D2"/>
</linearGradient>
<linearGradient id="paint50_linear_383_109" x1="0.670719" y1="1.30865" x2="44.9335" y2="33.4302" gradientUnits="userSpaceOnUse">
<stop stop-color="#4169E1"/>
<stop offset="1" stop-color="#3C62D2"/>
</linearGradient>
<linearGradient id="paint51_linear_383_109" x1="0.670719" y1="1.30865" x2="44.9335" y2="33.4302" gradientUnits="userSpaceOnUse">
<stop stop-color="#4169E1"/>
<stop offset="1" stop-color="#3C62D2"/>
</linearGradient>
<linearGradient id="paint52_linear_383_109" x1="0.670719" y1="1.30865" x2="44.9335" y2="33.4302" gradientUnits="userSpaceOnUse">
<stop stop-color="#4169E1"/>
<stop offset="1" stop-color="#3C62D2"/>
</linearGradient>
<linearGradient id="paint53_linear_383_109" x1="0.670719" y1="1.30865" x2="44.9335" y2="33.4302" gradientUnits="userSpaceOnUse">
<stop stop-color="#4169E1"/>
<stop offset="1" stop-color="#3C62D2"/>
</linearGradient>
<linearGradient id="paint54_linear_383_109" x1="0.670719" y1="1.30865" x2="44.9335" y2="33.4302" gradientUnits="userSpaceOnUse">
<stop stop-color="#4169E1"/>
<stop offset="1" stop-color="#3C62D2"/>
</linearGradient>
<linearGradient id="paint55_linear_383_109" x1="0.670719" y1="1.30865" x2="44.9335" y2="33.4302" gradientUnits="userSpaceOnUse">
<stop stop-color="#4169E1"/>
<stop offset="1" stop-color="#3C62D2"/>
</linearGradient>
<linearGradient id="paint56_linear_383_109" x1="0.670719" y1="1.30865" x2="44.9335" y2="33.4302" gradientUnits="userSpaceOnUse">
<stop stop-color="#4169E1"/>
<stop offset="1" stop-color="#3C62D2"/>
</linearGradient>
<linearGradient id="paint57_linear_383_109" x1="0.670719" y1="1.30865" x2="44.9335" y2="33.4302" gradientUnits="userSpaceOnUse">
<stop stop-color="#4169E1"/>
<stop offset="1" stop-color="#3C62D2"/>
</linearGradient>
<linearGradient id="paint58_linear_383_109" x1="0.670719" y1="1.30865" x2="44.9335" y2="33.4302" gradientUnits="userSpaceOnUse">
<stop stop-color="#4169E1"/>
<stop offset="1" stop-color="#3C62D2"/>
</linearGradient>
<linearGradient id="paint59_linear_383_109" x1="0.670719" y1="1.30865" x2="44.9335" y2="33.4302" gradientUnits="userSpaceOnUse">
<stop stop-color="#4169E1"/>
<stop offset="1" stop-color="#3C62D2"/>
</linearGradient>
<linearGradient id="paint60_linear_383_109" x1="0.670719" y1="1.30865" x2="44.9335" y2="33.4302" gradientUnits="userSpaceOnUse">
<stop stop-color="#4169E1"/>
<stop offset="1" stop-color="#3C62D2"/>
</linearGradient>
<linearGradient id="paint61_linear_383_109" x1="0.670719" y1="1.30865" x2="44.9335" y2="33.4302" gradientUnits="userSpaceOnUse">
<stop stop-color="#4169E1"/>
<stop offset="1" stop-color="#3C62D2"/>
</linearGradient>
<linearGradient id="paint62_linear_383_109" x1="0.670719" y1="1.30865" x2="44.9335" y2="33.4302" gradientUnits="userSpaceOnUse">
<stop stop-color="#4169E1"/>
<stop offset="1" stop-color="#3C62D2"/>
</linearGradient>
<linearGradient id="paint63_linear_383_109" x1="0.670719" y1="1.30865" x2="44.9335" y2="33.4302" gradientUnits="userSpaceOnUse">
<stop stop-color="#4169E1"/>
<stop offset="1" stop-color="#3C62D2"/>
</linearGradient>
<linearGradient id="paint64_linear_383_109" x1="0.670719" y1="1.30865" x2="44.9335" y2="33.4302" gradientUnits="userSpaceOnUse">
<stop stop-color="#4169E1"/>
<stop offset="1" stop-color="#3C62D2"/>
</linearGradient>
<linearGradient id="paint65_linear_383_109" x1="0.670719" y1="1.30865" x2="44.9335" y2="33.4302" gradientUnits="userSpaceOnUse">
<stop stop-color="#4169E1"/>
<stop offset="1" stop-color="#3C62D2"/>
</linearGradient>
<linearGradient id="paint66_linear_383_109" x1="0.670719" y1="1.30865" x2="44.9335" y2="33.4302" gradientUnits="userSpaceOnUse">
<stop stop-color="#4169E1"/>
<stop offset="1" stop-color="#3C62D2"/>
</linearGradient>
<linearGradient id="paint67_linear_383_109" x1="0.670719" y1="1.30865" x2="44.9335" y2="33.4302" gradientUnits="userSpaceOnUse">
<stop stop-color="#4169E1"/>
<stop offset="1" stop-color="#3C62D2"/>
</linearGradient>
<linearGradient id="paint68_linear_383_109" x1="0.670719" y1="1.30865" x2="44.9335" y2="33.4302" gradientUnits="userSpaceOnUse">
<stop stop-color="#4169E1"/>
<stop offset="1" stop-color="#3C62D2"/>
</linearGradient>
<linearGradient id="paint69_linear_383_109" x1="0.670719" y1="1.30865" x2="44.9335" y2="33.4302" gradientUnits="userSpaceOnUse">
<stop stop-color="#4169E1"/>
<stop offset="1" stop-color="#3C62D2"/>
</linearGradient>
<linearGradient id="paint70_linear_383_109" x1="0.670719" y1="1.30865" x2="44.9335" y2="33.4302" gradientUnits="userSpaceOnUse">
<stop stop-color="#4169E1"/>
<stop offset="1" stop-color="#3C62D2"/>
</linearGradient>
<linearGradient id="paint71_linear_383_109" x1="0.670719" y1="1.30865" x2="44.9335" y2="33.4302" gradientUnits="userSpaceOnUse">
<stop stop-color="#4169E1"/>
<stop offset="1" stop-color="#3C62D2"/>
</linearGradient>
<linearGradient id="paint72_linear_383_109" x1="0.670719" y1="1.30865" x2="44.9335" y2="33.4302" gradientUnits="userSpaceOnUse">
<stop stop-color="#4169E1"/>
<stop offset="1" stop-color="#3C62D2"/>
</linearGradient>
<linearGradient id="paint73_linear_383_109" x1="0.670719" y1="1.30865" x2="44.9335" y2="33.4302" gradientUnits="userSpaceOnUse">
<stop stop-color="#4169E1"/>
<stop offset="1" stop-color="#3C62D2"/>
</linearGradient>
<linearGradient id="paint74_linear_383_109" x1="0.670719" y1="1.30865" x2="44.9335" y2="33.4302" gradientUnits="userSpaceOnUse">
<stop stop-color="#4169E1"/>
<stop offset="1" stop-color="#3C62D2"/>
</linearGradient>
<linearGradient id="paint75_linear_383_109" x1="0.670719" y1="1.30865" x2="44.9335" y2="33.4302" gradientUnits="userSpaceOnUse">
<stop stop-color="#4169E1"/>
<stop offset="1" stop-color="#3C62D2"/>
</linearGradient>
<linearGradient id="paint76_linear_383_109" x1="0.670719" y1="1.30865" x2="44.9335" y2="33.4302" gradientUnits="userSpaceOnUse">
<stop stop-color="#4169E1"/>
<stop offset="1" stop-color="#3C62D2"/>
</linearGradient>
<linearGradient id="paint77_linear_383_109" x1="0.670719" y1="1.30865" x2="44.9335" y2="33.4302" gradientUnits="userSpaceOnUse">
<stop stop-color="#4169E1"/>
<stop offset="1" stop-color="#3C62D2"/>
</linearGradient>
<linearGradient id="paint78_linear_383_109" x1="0.670719" y1="1.30865" x2="44.9335" y2="33.4302" gradientUnits="userSpaceOnUse">
<stop stop-color="#4169E1"/>
<stop offset="1" stop-color="#3C62D2"/>
</linearGradient>
<linearGradient id="paint79_linear_383_109" x1="0.670719" y1="1.30865" x2="44.9335" y2="33.4302" gradientUnits="userSpaceOnUse">
<stop stop-color="#4169E1"/>
<stop offset="1" stop-color="#3C62D2"/>
</linearGradient>
<linearGradient id="paint80_linear_383_109" x1="0.670719" y1="1.30865" x2="44.9335" y2="33.4302" gradientUnits="userSpaceOnUse">
<stop stop-color="#4169E1"/>
<stop offset="1" stop-color="#3C62D2"/>
</linearGradient>
<linearGradient id="paint81_linear_383_109" x1="0.670719" y1="1.30865" x2="44.9335" y2="33.4302" gradientUnits="userSpaceOnUse">
<stop stop-color="#4169E1"/>
<stop offset="1" stop-color="#3C62D2"/>
</linearGradient>
<linearGradient id="paint82_linear_383_109" x1="0.670719" y1="1.30865" x2="44.9335" y2="33.4302" gradientUnits="userSpaceOnUse">
<stop stop-color="#4169E1"/>
<stop offset="1" stop-color="#3C62D2"/>
</linearGradient>
<linearGradient id="paint83_linear_383_109" x1="0.670719" y1="1.30865" x2="44.9335" y2="33.4302" gradientUnits="userSpaceOnUse">
<stop stop-color="#4169E1"/>
<stop offset="1" stop-color="#3C62D2"/>
</linearGradient>
<linearGradient id="paint84_linear_383_109" x1="0.670719" y1="1.30865" x2="44.9335" y2="33.4302" gradientUnits="userSpaceOnUse">
<stop stop-color="#4169E1"/>
<stop offset="1" stop-color="#3C62D2"/>
</linearGradient>
<linearGradient id="paint85_linear_383_109" x1="0.670719" y1="1.30865" x2="44.9335" y2="33.4302" gradientUnits="userSpaceOnUse">
<stop stop-color="#4169E1"/>
<stop offset="1" stop-color="#3C62D2"/>
</linearGradient>
<linearGradient id="paint86_linear_383_109" x1="0.670719" y1="1.30865" x2="44.9335" y2="33.4302" gradientUnits="userSpaceOnUse">
<stop stop-color="#4169E1"/>
<stop offset="1" stop-color="#3C62D2"/>
</linearGradient>
</defs>
</svg>
